<?xml version="1.0" encoding="UTF-8"?><svg id="a" xmlns="http://www.w3.org/2000/svg" viewBox="0 0 1661.06 1777.29"><defs><style>.b{letter-spacing:0em;}.c{letter-spacing:.02em;}.d{fill:#bc4a9b;}.d,.e{fill-rule:evenodd;}.f{letter-spacing:-.09em;}.e{fill:#06889b;}.g{fill:#fff;font-family:Lato-Light, Lato;font-size:296px;}</style></defs><path class="d" d="M814.21,49.17c6.87,0,13.72,.1,20.54,.27v8.57h-20.54v-8.84h0Zm2.84,1648.13c6.87,0,13.72-.09,20.54-.28v-8.56h-20.54v8.84h0ZM82.23,1078.71h-20.55v20.22h20.55v-20.22h0Zm57.88,0h-20.53v20.22h20.53v-20.22h0Zm28.96,0h-20.57v20.22h20.57v-20.22h0Zm28.94,0h-20.55v20.22h20.55v-20.22h0Zm28.95,0h-20.56v20.22h20.56v-20.22h0Zm57.88,0h-20.57v20.22h20.57v-20.22h0Zm86.83,0h-20.58v20.22h20.58v-20.22h0Zm28.93,0h-20.58v20.22h20.58v-20.22h0Zm28.97,0h-20.58v20.22h20.58v-20.22h0Zm57.87,0h-20.57v20.22h20.57v-20.22h0Zm28.94,0h-20.56v20.22h20.56v-20.22h0Zm57.89,0h-20.59v20.22h20.59v-20.22h0Zm202.61,0h-20.59v20.22h20.59v-20.22h0Zm55.22-69.29h-20.55v20.22h20.55v-20.22h0Zm60.54,69.29h-20.55v20.22h20.55v-20.22h0Zm28.94,0h-20.55v20.22h20.55v-20.22h0Zm57.89,0h-20.55v20.22h20.55v-20.22h0Zm28.94,0h-20.56v20.22h20.56v-20.22h0Zm57.88,0h-20.55v20.22h20.55v-20.22h0Zm28.95,0h-20.56v20.22h20.56v-20.22h0Zm57.89,0h-20.56v20.22h20.56v-20.22h0Zm57.88,0h-20.55v20.22h20.55v-20.22h0Zm28.94,0h-20.56v20.22h20.56v-20.22h0Zm28.94,0h-20.55v20.22h20.55v-20.22h0Zm28.94,0h-20.56v20.22h20.56v-20.22h0Zm57.88,0h-20.55v20.22h20.55v-20.22h0Zm28.94,0h-20.55v20.22h20.55v-20.22h0Zm57.89,0h-20.56v20.22h20.56v-20.22h0Zm-1389.27,28.61h-9.19c2.24,6.89,4.55,13.74,6.97,20.55h2.22v-20.55h0Zm28.94,0h-20.55v20.55h20.55v-20.55h0Zm57.88,0h-20.53v20.55h20.53v-20.55h0Zm115.77,0h-20.56v20.55h20.56v-20.55h0Zm28.96,0h-20.57v20.55h20.57v-20.55h0Zm86.83,0h-20.58v20.55h20.58v-20.55h0Zm28.93,0h-20.58v20.55h20.58v-20.55h0Zm28.97,0h-20.58v20.55h20.58v-20.55h0Zm28.91,0h-20.55v20.55h20.55v-20.55h0Zm57.9,0h-20.56v20.55h20.56v-20.55h0Zm57.89,0h-20.59v20.55h20.59v-20.55h0Zm28.92,0h-20.53v20.55h20.53v-20.55h0Zm28.96,0h-20.57v20.55h20.57v-20.55h0Zm28.96,0h-20.57v20.55h20.57v-20.55h0Zm57.9-89.6h-20.58v20.55h20.58v-20.55h0Zm86.8,89.6h-20.55v20.55h20.55v-20.55h0Zm28.93,0h-20.54v20.55h20.54v-20.55h0Zm57.89,0h-20.55v20.55h20.55v-20.55h0Zm57.89,0h-20.56v20.55h20.56v-20.55h0Zm28.94,0h-20.55v20.55h20.55v-20.55h0Zm57.89,0h-20.55v20.55h20.55v-20.55h0Zm28.94,0h-20.55v20.55h20.55v-20.55h0Zm57.89,0h-20.55v20.55h20.55v-20.55h0Zm28.94,0h-20.56v20.55h20.56v-20.55h0Zm28.94,0h-20.55v20.55h20.55v-20.55h0Zm86.83,0h-20.55v20.55h20.55v-20.55h0Zm28.94,0h-20.56v20.55h20.56v-20.55h0Zm28.94,0h-20.56v20.55h20.56v-20.55h0Zm28.94,0h-20.55v20.55h20.55v-20.55h0Zm28.94,0h-20.55v20.55h20.55v-20.55h0Zm57.89,0h-20.56v20.55h20.56v-20.55h0Zm115.77,0h-20.55v20.55h20.55v-20.55h0Zm17.02,20.55c2.42-6.81,4.74-13.66,6.97-20.55h-15.6v20.55h8.63Zm-1493.12,8.39h-20.55v19.87l.27,.68h20.28v-20.55h0Zm28.96,0h-20.57v20.55h20.57v-20.55h0Zm86.82,0h-20.55v20.55h20.55v-20.55h0Zm28.95,0h-20.56v20.55h20.56v-20.55h0Zm28.92,0h-20.56v20.55h20.56v-20.55h0Zm28.96,0h-20.57v20.55h20.57v-20.55h0Zm115.77,0h-20.58v20.55h20.58v-20.55h0Zm115.78,0h-20.56v20.55h20.56v-20.55h0Zm86.81,0h-20.53v20.55h20.53v-20.55h0Zm57.92,0h-20.57v20.55h20.57v-20.55h0Zm115.77,0h-20.59v20.55h20.59v-20.55h0Zm28.94,0h-20.55v20.55h20.55v-20.55h0Zm57.88,0h-20.56v20.55h20.56v-20.55h0Zm115.77,0h-20.55v20.55h20.55v-20.55h0Zm28.94,0h-20.56v20.55h20.56v-20.55h0Zm57.88,0h-20.55v20.55h20.55v-20.55h0Zm57.89,0h-20.55v20.55h20.55v-20.55h0Zm28.94,0h-20.56v20.55h20.56v-20.55h0Zm115.77,0h-20.55v20.55h20.55v-20.55h0Zm42.74-150.18h-20.56v20.55h20.56v-20.55h0Zm15.15,150.18h-20.56v20.55h20.56v-20.55h0Zm28.94,0h-20.55v20.55h20.55v-20.55h0Zm57.89,0h-20.56v20.55h20.56v-20.55h0Zm28.94,0h-20.56v20.55h20.56v-20.55h0Zm28.94,0h-20.55v20.55h20.55v-20.55h0Zm28.95,0h-20.55v20.55h20.55v-20.55h0Zm28.94,0h-20.56v20.55h20.56v-20.55h0Zm28.94,0h-20.55v20.55h20.55v-20.55h0Zm8.39,14.82c1.91-4.92,3.77-9.86,5.58-14.82h-5.58v14.82h0Zm-1484.49,14.11h-16.85c2.84,6.91,5.76,13.79,8.78,20.59h8.06v-20.59h0Zm27.72,118.39h-20.57v20.59h20.57v-20.59h0Zm30.17-118.39h-20.53v20.59h20.53v-20.59h0Zm86.85,0h-20.56v20.59h20.56v-20.59h0Zm86.83,0h-20.56v20.59h20.56v-20.59h0Zm-70.28-178.78h-20.56v20.59h20.56v-20.59h0Zm157.1,178.78h-20.58v20.59h20.58v-20.59h0Zm28.97,0h-20.58v20.59h20.58v-20.59h0Zm28.91,0h-20.55v20.59h20.55v-20.59h0Zm57.9,0h-20.56v20.59h20.56v-20.59h0Zm28.94,0h-20.55v20.59h20.55v-20.59h0Zm28.95,0h-20.59v20.59h20.59v-20.59h0Zm-27.21-155.68h-20.53v20.58h20.53v-20.58h0Zm85.09,155.68h-20.57v20.59h20.57v-20.59h0Zm86.86,0h-20.58v20.59h20.58v-20.59h0Zm28.92,0h-20.56v20.59h20.56v-20.59h0Zm57.88,0h-20.55v20.59h20.55v-20.59h0Zm28.93,0h-20.54v20.59h20.54v-20.59h0Zm57.89,0h-20.55v20.59h20.55v-20.59h0Zm28.94,0h-20.55v20.59h20.55v-20.59h0Zm28.95,0h-20.56v20.59h20.56v-20.59h0Zm28.94,0h-20.55v20.59h20.55v-20.59h0Zm57.89,0h-20.55v20.59h20.55v-20.59h0Zm57.88,0h-20.56v20.59h20.56v-20.59h0Zm28.94,0h-20.55v20.59h20.55v-20.59h0Zm57.88,0h-20.55v20.59h20.55v-20.59h0Zm28.94,0h-20.55v20.59h20.55v-20.59h0Zm28.94,0h-20.56v20.59h20.56v-20.59h0Zm86.83,0h-20.56v20.59h20.56v-20.59h0Zm57.88,0h-20.55v20.59h20.55v-20.59h0Zm28.94,0h-20.56v20.59h20.56v-20.59h0Zm86.83,0h-20.55v20.59h20.55v-20.59h0Zm28.94,0h-20.56v20.59h20.56v-20.59h0Zm22.86,20.59c2.08-4.68,4.1-9.38,6.08-14.1v-6.49h-20.55v20.59h14.47Zm-1470.02,8.36h-4.25c1.4,3.05,2.82,6.11,4.25,9.14v-9.14h0Zm28.96,0h-20.57v20.56h20.57v-20.56h0Zm-72.02,13.7H18.64v20.57h20.54v-20.57h0Zm129.9-13.7h-20.57v20.56h20.57v-20.56h0Zm28.94,0h-20.55v20.56h20.55v-20.56h0Zm57.87,0h-20.56v20.56h20.56v-20.56h0Zm28.96,0h-20.57v20.56h20.57v-20.56h0Zm28.95,0h-20.56v20.56h20.56v-20.56h0Zm28.95,0h-20.56v20.56h20.56v-20.56h0Zm-1.34-192.42h-20.58v20.56h20.58v-20.56h0Zm88.18,192.42h-20.58v20.56h20.58v-20.56h0Zm28.91,0h-20.55v20.56h20.55v-20.56h0Zm28.96,0h-20.57v20.56h20.57v-20.56h0Zm57.88,0h-20.55v20.56h20.55v-20.56h0Zm57.87,0h-20.53v20.56h20.53v-20.56h0Zm28.96,0h-20.57v20.56h20.57v-20.56h0Zm28.96,0h-20.57v20.56h20.57v-20.56h0Zm28.94,0h-20.58v20.56h20.58v-20.56h0Zm57.88,0h-20.56v20.56h20.56v-20.56h0Zm57.88,0h-20.55v20.56h20.55v-20.56h0Zm28.93,0h-20.54v20.56h20.54v-20.56h0Zm28.95,0h-20.56v20.56h20.56v-20.56h0Zm28.94,0h-20.55v20.56h20.55v-20.56h0Zm57.89,0h-20.56v20.56h20.56v-20.56h0Zm57.89,0h-20.56v20.56h20.56v-20.56h0Zm57.88,0h-20.55v20.56h20.55v-20.56h0Zm28.95,0h-20.56v20.56h20.56v-20.56h0Zm28.94,0h-20.55v20.56h20.55v-20.56h0Zm28.94,0h-20.56v20.56h20.56v-20.56h0Zm28.94,0h-20.55v20.57h20.55v-20.57h0Zm28.94,0h-20.55v20.57h20.55v-20.57h0Zm57.89,0h-20.55v20.57h20.55v-20.57h0Zm28.94,0h-20.56v20.57h20.56v-20.57h0Zm28.94,0h-20.56v20.57h20.56v-20.57h0Zm28.94,0h-20.55v20.57h20.55v-20.57h0Zm57.89,0h-20.56v20.57h20.56v-20.57h0Zm28.94,0h-20.56v20.57h20.56v-20.57h0Zm28.94,0h-20.55v20.57h20.55v-20.57h0Zm111.54,137.64h-20.56v20.56h20.56v-20.56h0Zm-53.65-137.64h-20.56v20.57h20.56v-20.57h0Zm47.36,45.66c3.35-6.8,6.59-13.67,9.75-20.56h-10.66v20.56h.91Zm-1436.63-16.74h-20.53v20.57h20.53v-20.57h0Zm-106.88-66.05H12.67v20.57h20.57v-20.57h0Zm193.73,66.05h-20.56v20.57h20.56v-20.57h0Zm28.92,0h-20.56v20.57h20.56v-20.57h0Zm86.86,0h-20.56v20.57h20.56v-20.57h0Zm57.87,0h-20.58v20.57h20.58v-20.57h0Zm28.97,0h-20.58v20.57h20.58v-20.57h0Zm57.87,0h-20.57v20.57h20.57v-20.57h0Zm28.94,0h-20.56v20.57h20.56v-20.57h0Zm57.89,0h-20.59v20.57h20.59v-20.57h0Zm28.92,0h-20.53v20.57h20.53v-20.57h0Zm57.92,0h-20.57v20.57h20.57v-20.57h0Zm28.94,0h-20.58v20.57h20.58v-20.57h0Zm115.77,0h-20.55v20.57h20.55v-20.57h0Zm28.93,0h-20.54v20.57h20.54v-20.57h0Zm28.95,0h-20.56v20.57h20.56v-20.57h0Zm57.88,0h-20.55v20.57h20.55v-20.57h0Zm57.89,0h-20.55v20.57h20.55v-20.57h0Zm28.94,0h-20.56v20.57h20.56v-20.57h0Zm28.94,0h-20.55v20.57h20.55v-20.57h0Zm28.94,0h-20.55v20.57h20.55v-20.57h0Zm28.95,0h-20.56v20.57h20.56v-20.57h0Zm28.94,0h-20.55v20.57h20.55v-20.57h0Zm86.83,0h-20.55v20.57h20.55v-20.57h0Zm28.94,0h-20.56v20.57h20.56v-20.57h0Zm57.89,0h-20.56v20.57h20.56v-20.57h0Zm86.83,0h-20.55v20.57h20.55v-20.57h0Zm28.94,0h-20.56v20.57h20.56v-20.57h0Zm28.94,0h-20.56v20.57h20.56v-20.57h0Zm28.94,0h-20.55v20.57h20.55v-20.57h0Zm-1360.3,28.96h-3.8c1.25,2.24,2.53,4.48,3.8,6.71v-6.71h0Zm28.92,0h-20.53v20.57h20.53v-20.57h0Zm28.96,0h-20.57v20.57h20.57v-20.57h0Zm-116.86,18.69H31.65v20.57h20.56v-20.57h0Zm174.75-18.69h-20.56v20.57h20.56v-20.57h0Zm57.88,0h-20.57v20.57h20.57v-20.57h0Zm28.95,0h-20.56v20.57h20.56v-20.57h0Zm28.95,0h-20.56v20.57h20.56v-20.57h0Zm28.93,0h-20.58v20.57h20.58v-20.57h0Zm57.9,0h-20.58v20.57h20.58v-20.57h0Zm28.91,0h-20.55v20.57h20.55v-20.57h0Zm28.96,0h-20.57v20.57h20.57v-20.57h0Zm57.88,0h-20.55v20.57h20.55v-20.57h0Zm57.87,0h-20.53v20.57h20.53v-20.57h0Zm57.92,0h-20.57v20.57h20.57v-20.57h0Zm57.9,0h-20.58v20.57h20.58v-20.57h0Zm57.86,0h-20.59v20.57h20.59v-20.57h0Zm28.94,0h-20.55v20.57h20.55v-20.57h0Zm86.82,0h-20.55v20.57h20.55v-20.57h0Zm28.94,0h-20.55v20.57h20.55v-20.57h0Zm28.95,0h-20.56v20.57h20.56v-20.57h0Zm28.94,0h-20.55v20.57h20.55v-20.57h0Zm28.94,0h-20.56v20.57h20.56v-20.57h0Zm28.94,0h-20.55v20.57h20.55v-20.57h0Zm86.83,0h-20.55v20.57h20.55v-20.57h0Zm28.94,0h-20.56v20.57h20.56v-20.57h0Zm57.88,0h-20.55v20.57h20.55v-20.57h0Zm28.94,0h-20.56v20.57h20.56v-20.57h0Zm28.94,0h-20.55v20.57h20.55v-20.57h0Zm28.94,0h-20.56v20.57h20.56v-20.57h0Zm57.88,0h-20.55v20.57h20.55v-20.57h0Zm57.89,0h-20.56v20.57h20.56v-20.57h0Zm28.94,0h-20.56v20.57h20.56v-20.57h0Zm60.52-28.34h-20.55v20.57h20.55v-20.57h0Zm15.18,124.69h-20.55v20.57h20.55v-20.57h0Zm-9.43-78.64c3.47-5.86,6.86-11.77,10.19-17.72h-10.19v17.72h0Zm-1339.76,11.22h-20.57v20.58h20.57v-20.58h0Zm28.94,0h-20.55v20.58h20.55v-20.58h0Zm28.95,0h-20.56v20.58h20.56v-20.58h0Zm86.83,0h-20.56v20.58h20.56v-20.58h0Zm28.95,0h-20.56v20.58h20.56v-20.58h0Zm-266.41,37.39h-20.58v20.58h20.58v-20.58h0Zm324.28-37.39h-20.58v20.58h20.58v-20.58h0Zm28.97,0h-20.58v20.58h20.58v-20.58h0Zm57.87,0h-20.57v20.58h20.57v-20.58h0Zm57.88,0h-20.55v20.58h20.55v-20.58h0Zm28.95,0h-20.59v20.58h20.59v-20.58h0Zm28.92,0h-20.53v20.58h20.53v-20.58h0Zm57.92,0h-20.57v20.58h20.57v-20.58h0Zm28.94,0h-20.58v20.58h20.58v-20.58h0Zm57.88,0h-20.56v20.58h20.56v-20.58h0Zm28.95,0h-20.59v20.58h20.59v-20.58h0Zm28.94,0h-20.55v20.58h20.55v-20.58h0Zm28.93,0h-20.54v20.58h20.54v-20.58h0Zm86.83,0h-20.55v20.58h20.55v-20.58h0Zm57.89,0h-20.55v20.58h20.55v-20.58h0Zm28.94,0h-20.56v20.58h20.56v-20.58h0Zm28.94,0h-20.55v20.58h20.55v-20.58h0Zm28.94,0h-20.55v20.58h20.55v-20.58h0Zm28.95,0h-20.56v20.58h20.56v-20.58h0Zm57.89,0h-20.56v20.58h20.56v-20.58h0Zm28.94,0h-20.55v20.58h20.55v-20.58h0Zm28.94,0h-20.55v20.58h20.55v-20.58h0Zm57.89,0h-20.55v20.58h20.55v-20.58h0Zm28.94,0h-20.56v20.58h20.56v-20.58h0Zm28.94,0h-20.56v20.58h20.56v-20.58h0Zm57.88,0h-20.55v20.58h20.55v-20.58h0Zm28.94,0h-20.56v20.58h20.56v-20.58h0Zm-1244.54,28.96h-20.57v7.9c2.96,4.26,5.95,8.49,8.98,12.69h11.58v-20.58h0Zm57.9,0h-20.56v20.58h20.56v-20.58h0Zm28.92,0h-20.56v20.58h20.56v-20.58h0Zm28.96,0h-20.57v20.58h20.57v-20.58h0Zm28.95,0h-20.56v20.58h20.56v-20.58h0Zm57.88,0h-20.58v20.58h20.58v-20.58h0Zm28.93,0h-20.58v20.58h20.58v-20.58h0Zm57.88,0h-20.55v20.58h20.55v-20.58h0Zm28.96,0h-20.57v20.58h20.57v-20.58h0Zm28.94,0h-20.56v20.58h20.56v-20.58h0Zm28.94,0h-20.55v20.58h20.55v-20.58h0Zm28.95,0h-20.59v20.58h20.59v-20.58h0Zm57.88,0h-20.57v20.58h20.57v-20.58h0Zm28.96,0h-20.57v20.58h20.57v-20.58h0Zm28.94,0h-20.58v20.58h20.58v-20.58h0Zm28.97,0h-20.58v20.58h20.58v-20.58h0Zm28.92,0h-20.56v20.58h20.56v-20.58h0Zm28.95,0h-20.59v20.58h20.59v-20.58h0Zm86.82,0h-20.56v20.58h20.56v-20.58h0Zm28.94,0h-20.55v20.58h20.55v-20.58h0Zm28.94,0h-20.55v20.58h20.55v-20.58h0Zm28.95,0h-20.56v20.58h20.56v-20.58h0Zm28.94,0h-20.55v20.58h20.55v-20.58h0Zm28.94,0h-20.56v20.58h20.56v-20.58h0Zm115.77,0h-20.55v20.58h20.55v-20.58h0Zm28.94,0h-20.56v20.58h20.56v-20.58h0Zm57.88,0h-20.55v20.58h20.55v-20.58h0Zm28.94,0h-20.56v20.58h20.56v-20.58h0Zm57.89,0h-20.56v20.58h20.56v-20.58h0Zm57.88,0h-20.55v20.58h20.55v-20.58h0Zm132.17,87.45h-20.55v20.58h20.55v-20.58h0Zm-1318.83-58.5h-5.49c1.81,2.44,3.65,4.88,5.49,7.3v-7.3h0Zm28.94,0h-20.55v18.12l1.91,2.43h18.64v-20.55h0Zm28.95,0h-20.56v20.55h20.56v-20.55h0Zm28.92,0h-20.56v20.55h20.56v-20.55h0Zm57.91,0h-20.56v20.55h20.56v-20.55h0Zm28.95,0h-20.56v20.55h20.56v-20.55h0Zm28.93,0h-20.58v20.55h20.58v-20.55h0Zm28.93,0h-20.58v20.55h20.58v-20.55h0Zm28.97,0h-20.58v20.55h20.58v-20.55h0Zm57.87,0h-20.57v20.55h20.57v-20.55h0Zm28.94,0h-20.56v20.55h20.56v-20.55h0Zm57.89,0h-20.59v20.55h20.59v-20.55h0Zm28.92,0h-20.53v20.55h20.53v-20.55h0Zm28.96,0h-20.57v20.55h20.57v-20.55h0Zm28.96,0h-20.57v20.55h20.57v-20.55h0Zm28.94,0h-20.58v20.55h20.58v-20.55h0Zm28.97,0h-20.58v20.55h20.58v-20.55h0Zm57.86,0h-20.59v20.55h20.59v-20.55h0Zm28.94,0h-20.55v20.55h20.55v-20.55h0Zm28.93,0h-20.54v20.56h20.54v-20.56h0Zm28.95,0h-20.56v20.56h20.56v-20.56h0Zm28.94,0h-20.55v20.56h20.55v-20.56h0Zm57.89,0h-20.56v20.56h20.56v-20.56h0Zm28.94,0h-20.55v20.56h20.55v-20.56h0Zm28.94,0h-20.56v20.56h20.56v-20.56h0Zm28.94,0h-20.55v20.56h20.55v-20.56h0Zm28.94,0h-20.55v20.56h20.55v-20.56h0Zm28.95,0h-20.56v20.56h20.56v-20.56h0Zm28.94,0h-20.55v20.56h20.55v-20.56h0Zm28.94,0h-20.56v20.56h20.56v-20.56h0Zm57.88,0h-20.55v20.56h20.55v-20.56h0Zm57.89,0h-20.55v20.56h20.55v-20.56h0Zm28.94,0h-20.56v20.56h20.56v-20.56h0Zm28.94,0h-20.56v20.56h20.56v-20.56h0Zm28.94,0h-20.55v20.56h20.55v-20.56h0Zm28.94,0h-20.55v20.56h20.55v-20.56h0Zm54.85,79.35h-20.56v20.56h20.56v-20.56h0Zm-13.7-92.84h-20.55v20.55h20.55v-20.55h0Zm39.16,47.97c4.03-5.14,8-10.33,11.9-15.58h-11.9v15.58h0Zm-1288.76,17.06h-11.91c3.92,4.81,7.89,9.58,11.91,14.3v-14.3h0Zm50.75-22.6h-20.56v20.59h20.56v-20.59h0Zm-95.78,.73h-20.56v20.58h20.56v-20.58h0Zm211.56-.73h-20.56v20.59h20.56v-20.59h0Zm86.83,0h-20.58v20.59h20.58v-20.59h0Zm57.87,0h-20.57v20.59h20.57v-20.59h0Zm57.88,0h-20.55v20.59h20.55v-20.59h0Zm57.87,0h-20.53v20.59h20.53v-20.59h0Zm28.96,0h-20.57v20.59h20.57v-20.59h0Zm57.9,0h-20.58v20.59h20.58v-20.59h0Zm28.97,0h-20.58v20.59h20.58v-20.59h0Zm86.8,0h-20.55v20.59h20.55v-20.59h0Zm28.93,0h-20.54v20.59h20.54v-20.59h0Zm57.89,0h-20.55v20.59h20.55v-20.59h0Zm28.94,0h-20.55v20.59h20.55v-20.59h0Zm57.89,0h-20.55v20.59h20.55v-20.59h0Zm28.94,0h-20.56v20.59h20.56v-20.59h0Zm86.83,0h-20.56v20.59h20.56v-20.59h0Zm28.94,0h-20.55v20.59h20.55v-20.59h0Zm28.94,0h-20.56v20.59h20.56v-20.59h0Zm57.88,0h-20.55v20.59h20.55v-20.59h0Zm28.94,0h-20.56v20.59h20.56v-20.59h0Zm57.89,0h-20.56v20.59h20.56v-20.59h0Zm28.94,0h-20.56v20.59h20.56v-20.59h0Zm28.94,0h-20.55v20.59h20.55v-20.59h0Zm196.82,38.87h-20.55v20.59h20.55v-20.59h0Zm-140.36,13.03c5.89-6.77,11.66-13.63,17.33-20.59h-18.31v20.59h.98Zm-1186.03,.46h-16.12c5.29,5.9,10.66,11.74,16.12,17.48v-17.48h0Zm53.51-5.86h-20.56v20.55h20.56v-20.55h0Zm-87.77,60.86h-20.57v20.56h20.57v-20.56h0Zm208.71-78.41h-20.58v20.56h20.58v-20.56h0Zm57.88,0h-20.55v20.56h20.55v-20.56h0Zm57.9,0h-20.56v20.56h20.56v-20.56h0Zm28.94,0h-20.55v20.56h20.55v-20.56h0Zm57.87,0h-20.53v20.56h20.53v-20.56h0Zm57.92,0h-20.57v20.56h20.57v-20.56h0Zm57.9,0h-20.58v20.56h20.58v-20.56h0Zm28.92,0h-20.56v20.56h20.56v-20.56h0Zm28.95,0h-20.59v20.56h20.59v-20.56h0Zm28.94,0h-20.55v20.56h20.55v-20.56h0Zm28.93,0h-20.54v20.55h20.54v-20.55h0Zm28.95,0h-20.56v20.55h20.56v-20.55h0Zm28.94,0h-20.55v20.55h20.55v-20.55h0Zm28.94,0h-20.55v20.55h20.55v-20.55h0Zm28.95,0h-20.56v20.55h20.56v-20.55h0Zm28.94,0h-20.55v20.55h20.55v-20.55h0Zm57.89,0h-20.55v20.55h20.55v-20.55h0Zm28.94,0h-20.55v20.55h20.55v-20.55h0Zm57.89,0h-20.55v20.55h20.55v-20.55h0Zm28.94,0h-20.56v20.55h20.56v-20.55h0Zm28.94,0h-20.55v20.55h20.55v-20.55h0Zm28.94,0h-20.55v20.55h20.55v-20.55h0Zm86.83,0h-20.56v20.55h20.56v-20.55h0Zm28.94,0h-20.56v20.55h20.56v-20.55h0Zm28.94,0h-20.55v20.55h20.55v-20.55h0Zm237.84-18.36h-20.56v20.55h20.56v-20.55h0Zm-1345.28,104.79h-17.86c5.86,5.93,11.82,11.78,17.86,17.53v-17.53h0Zm-17.49,10.93h-20.56v20.56h20.56v-20.56h0Zm-94.94-62.66h-20.58v20.56h20.58v-20.56h0Zm76.38,131.83h-20.58v20.56h20.58v-20.56h0Zm217.32-137.6h-20.58v20.56h20.58v-20.56h0Zm28.91,0h-20.55v20.56h20.55v-20.56h0Zm28.96,0h-20.57v20.56h20.57v-20.56h0Zm57.88,0h-20.55v20.56h20.55v-20.56h0Zm28.95,0h-20.59v20.56h20.59v-20.56h0Zm28.92,0h-20.53v20.56h20.53v-20.56h0Zm57.92,0h-20.57v20.56h20.57v-20.56h0Zm28.94,0h-20.58v20.56h20.58v-20.56h0Zm28.97,0h-20.58v20.56h20.58v-20.56h0Zm28.92,0h-20.56v20.56h20.56v-20.56h0Zm28.95,0h-20.59v20.56h20.59v-20.56h0Zm57.87,0h-20.54v20.56h20.54v-20.56h0Zm57.89,0h-20.55v20.56h20.55v-20.56h0Zm28.94,0h-20.55v20.56h20.55v-20.56h0Zm28.95,0h-20.56v20.56h20.56v-20.56h0Zm28.94,0h-20.55v20.56h20.55v-20.56h0Zm57.89,0h-20.55v20.56h20.55v-20.56h0Zm28.94,0h-20.55v20.56h20.55v-20.56h0Zm28.95,0h-20.56v20.56h20.56v-20.56h0Zm28.94,0h-20.55v20.56h20.55v-20.56h0Zm28.94,0h-20.56v20.56h20.56v-20.56h0Zm28.94,0h-20.55v20.56h20.55v-20.56h0Zm28.94,0h-20.55v20.56h20.55v-20.56h0Zm28.94,0h-20.56v20.56h20.56v-20.56h0Zm28.94,0h-20.55v20.56h20.55v-20.56h0Zm28.94,0h-20.56v20.56h20.56v-20.56h0Zm28.94,0h-20.56v20.56h20.56v-20.56h0Zm28.94,0h-20.55v20.56h20.55v-20.56h0Zm11.6,20.56c5.86-5.52,11.64-11.12,17.34-16.81v-3.74h-20.55v20.56h3.21Zm-1130.38,3.16h-16.69c5.49,5.01,11.06,9.95,16.69,14.82v-14.82h0Zm74.95,20.91h-20.56v20.57h20.56v-20.57h0Zm-169.56,50.6h-20.58v20.57h20.58v-20.57h0Zm234.14-47.15h-20.58v20.57h20.58v-20.57h0Zm139.91-19.13h-20.56v20.57h20.56v-20.57h0Zm86.81,0h-20.53v20.57h20.53v-20.57h0Zm28.96,0h-20.57v20.57h20.57v-20.57h0Zm28.96,0h-20.57v20.57h20.57v-20.57h0Zm57.9,0h-20.58v20.57h20.58v-20.57h0Zm28.92,0h-20.56v20.57h20.56v-20.57h0Zm28.95,0h-20.59v20.57h20.59v-20.57h0Zm86.82,0h-20.56v20.57h20.56v-20.57h0Zm57.88,0h-20.55v20.57h20.55v-20.57h0Zm28.95,0h-20.56v20.57h20.56v-20.57h0Zm28.94,0h-20.55v20.57h20.55v-20.57h0Zm86.83,0h-20.55v20.57h20.55v-20.57h0Zm57.89,0h-20.55v20.57h20.55v-20.57h0Zm143.58,226.05h-20.56v20.58h20.56v-20.58h0Zm-27.81-226.05h-20.56v20.57h20.56v-20.57h0Zm28.94,0h-20.55v20.57h20.55v-20.57h0Zm-957,59.38h-12.14c4.01,3.28,8.06,6.53,12.14,9.74v-9.74h0Zm10.93,28.03h-20.56v16.25c1.87,1.43,3.75,2.86,5.64,4.28h14.92v-20.54h0Zm38.42-12.35h-20.57v20.54h20.57v-20.54h0Zm13.48,54.77h-20.58v20.54h20.58v-20.54h0Zm54.85-100.86h-20.58v20.54h20.58v-20.54h0Zm57.87,0h-20.57v20.54h20.57v-20.54h0Zm28.94,0h-20.56v20.54h20.56v-20.54h0Zm28.94,0h-20.55v20.54h20.55v-20.54h0Zm28.95,0h-20.59v20.54h20.59v-20.54h0Zm28.92,0h-20.53v20.54h20.53v-20.54h0Zm57.92,0h-20.57v20.54h20.57v-20.54h0Zm57.9,0h-20.58v20.54h20.58v-20.54h0Zm57.86,0h-20.59v20.54h20.59v-20.54h0Zm57.87,0h-20.54v20.54h20.54v-20.54h0Zm28.95,0h-20.56v20.54h20.56v-20.54h0Zm86.83,0h-20.56v20.54h20.56v-20.54h0Zm28.94,0h-20.55v20.54h20.55v-20.54h0Zm57.89,0h-20.55v20.54h20.55v-20.54h0Zm28.94,0h-20.55v20.54h20.55v-20.54h0Zm28.95,0h-20.56v20.54h20.56v-20.54h0Zm28.94,0h-20.55v20.54h20.55v-20.54h0Zm28.94,0h-20.56v20.54h20.56v-20.54h0Zm57.88,0h-20.55v20.54h20.55v-20.54h0Zm121.63,37.83h-20.55v20.53h20.55v-20.53h0Zm-63.74-37.83h-20.55v20.54h20.55v-20.54h0Zm28.94,0h-20.56v20.54h20.56v-20.54h0Zm-1023.76,69.26h-20.58v20.56h20.58v-20.56h0Zm155.5-40.34h-20.58v20.56h20.58v-20.56h0Zm28.91,0h-20.55v20.56h20.55v-20.56h0Zm115.79,0h-20.59v20.56h20.59v-20.56h0Zm28.92,0h-20.53v20.56h20.53v-20.56h0Zm28.96,0h-20.57v20.56h20.57v-20.56h0Zm28.96,0h-20.57v20.56h20.57v-20.56h0Zm28.94,0h-20.58v20.56h20.58v-20.56h0Zm28.97,0h-20.58v20.56h20.58v-20.56h0Zm57.86,0h-20.59v20.56h20.59v-20.56h0Zm28.94,0h-20.55v20.56h20.55v-20.56h0Zm55.42,199.56h-20.55v20.56h20.55v-20.56h0Zm89.29-199.56h-20.56v20.56h20.56v-20.56h0Zm28.94,0h-20.55v20.56h20.55v-20.56h0Zm86.83,0h-20.55v20.56h20.55v-20.56h0Zm28.95,0h-20.56v20.56h20.56v-20.56h0Zm57.89,0h-20.56v20.56h20.56v-20.56h0Zm28.94,0h-20.55v20.56h20.55v-20.56h0Zm57.89,0h-20.56v20.56h20.56v-20.56h0Zm37.33,7.1c3.34-2.34,6.66-4.72,9.95-7.1h-9.95v7.1h0Zm31.29,64.54c3.82-2.52,7.62-5.07,11.39-7.65v-12.91h-20.55v20.57h9.16Zm-879-42.68h-20.58v16.43c2.39,1.4,4.8,2.75,7.21,4.12h13.37v-20.56h0Zm28.91,0h-20.55v20.56h20.55v-20.56h0Zm28.96,0h-20.57v20.56h20.57v-20.56h0Zm28.94,0h-20.56v20.56h20.56v-20.56h0Zm86.81,0h-20.53v20.56h20.53v-20.56h0Zm28.96,0h-20.57v20.56h20.57v-20.56h0Zm28.96,0h-20.57v20.56h20.57v-20.56h0Zm57.9,0h-20.58v20.56h20.58v-20.56h0Zm28.92,0h-20.56v20.56h20.56v-20.56h0Zm28.95,0h-20.59v20.56h20.59v-20.56h0Zm28.94,0h-20.55v20.56h20.55v-20.56h0Zm28.93,0h-20.54v20.56h20.54v-20.56h0Zm28.95,0h-20.56v20.56h20.56v-20.56h0Zm28.94,0h-20.55v20.56h20.55v-20.56h0Zm28.94,0h-20.55v20.56h20.55v-20.56h0Zm-2.27,158.9h-20.56v20.56h20.56v-20.56h0Zm60.15-158.9h-20.55v20.56h20.55v-20.56h0Zm28.94,0h-20.56v20.56h20.56v-20.56h0Zm28.94,0h-20.55v20.56h20.55v-20.56h0Zm28.94,0h-20.55v20.56h20.55v-20.56h0Zm28.95,0h-20.56v20.56h20.56v-20.56h0Zm21.37,167.41h-20.55v20.56h20.55v-20.56h0Zm102.38-148.57h-20.56v20.56h20.56v-20.56h0Zm.4-3.56c6.92-4.04,13.77-8.18,20.56-12.42v-2.86h-20.56v15.28h0Zm-760.92,13.67h-20.55v3.43c6.8,3.58,13.64,7.05,20.55,10.44v-13.86h0Zm28.96,0h-20.57v17.91c1.88,.89,3.76,1.77,5.64,2.64h14.93v-20.56h0Zm57.88,0h-20.55v20.56h20.55v-20.56h0Zm28.95,0h-20.59v20.56h20.59v-20.56h0Zm28.92,0h-20.53v20.56h20.53v-20.56h0Zm57.92,0h-20.57v20.56h20.57v-20.56h0Zm28.94,0h-20.58v20.56h20.58v-20.56h0Zm57.88,0h-20.56v20.56h20.56v-20.56h0Zm28.95,0h-20.59v20.56h20.59v-20.56h0Zm57.87,0h-20.54v20.56h20.54v-20.56h0Zm86.83,0h-20.55v20.56h20.55v-20.56h0Zm86.83,0h-20.56v20.56h20.56v-20.56h0Zm113.37,79.09h-20.55v20.56h20.55v-20.56h0Zm85.07,69.39h-20.56v20.57h20.56v-20.57h0Zm-82.66-148.49h-20.55v20.56h20.55v-20.56h0Zm37.33,16.96c6.9-3.3,13.76-6.7,20.55-10.19v-6.77h-20.55v16.96h0Zm-645.13,11.95h-20.56v2.03c6.81,2.91,13.66,5.73,20.56,8.45v-10.48h0Zm28.94,0h-20.55v13.73c6.16,2.36,12.35,4.63,18.57,6.83h1.97v-20.57h0Zm86.83,0h-20.57v20.57h20.57v-20.57h0Zm28.96,0h-20.57v20.57h20.57v-20.57h0Zm57.9,0h-20.58v20.57h20.58v-20.57h0Zm28.92,0h-20.56v20.57h20.56v-20.57h0Zm28.95,0h-20.59v20.57h20.59v-20.57h0Zm28.94,0h-20.55v20.57h20.55v-20.57h0Zm28.93,0h-20.54v20.57h20.54v-20.57h0Zm28.95,0h-20.56v20.57h20.56v-20.57h0Zm115.77,0h-20.55v20.57h20.55v-20.57h0Zm165.44,13.64h-20.56v20.56h20.56v-20.56h0Zm-78.62-13.64h-20.55v20.57h20.55v-20.57h0Zm7.53,49.98c6.89-2.65,13.75-5.4,20.56-8.24v-4.73h-20.56v12.97h0Zm-499.55-21.03h-5.98c1.99,.63,3.98,1.27,5.98,1.88v-1.88h0Zm28.92,0h-20.53v4.42c6.81,2.02,13.65,3.96,20.53,5.81v-10.23h0Zm57.92,0h-20.57v19.31c1.97,.43,3.94,.85,5.91,1.26h14.66v-20.56h0Zm57.9,0h-20.58v20.56h20.58v-20.56h0Zm181.56,120.11h-20.55v20.58h20.55v-20.58h0Zm50.32-77.55h-20.56v20.57h20.56v-20.57h0Zm-.38-42.56h-20.56v20.56h20.56v-20.56h0Zm28.94,0h-20.55v20.56h20.55v-20.56h0Zm52.67,41.48c4.14-1.25,8.26-2.52,12.37-3.83h-12.37v3.83h0Zm-.44-17.22c6.89-1.79,13.74-3.68,20.55-5.63v-6.29h-20.55v11.93h0Zm-71.06,68.63c6.89-1.52,13.74-3.13,20.56-4.81v-14.07h-20.56v18.88h0Zm-241.63-63.93h-20.57v.75c6.83,.98,13.69,1.86,20.57,2.66v-3.42h0Zm57.87,0h-20.59v6.87c6.84,.47,13.71,.87,20.59,1.17v-8.04h0Zm28.94,0h-20.55v8.37c6.83,.23,13.68,.38,20.55,.44v-8.81h0Zm51.51,44.24c6.88-.24,13.72-.59,20.55-1v-7.3h-20.55v8.3h0Zm168.25-679.9h-20.55v-20.57h20.55v20.57h0ZM26.85,670.88H8.94c1.92-6.78,3.96-13.52,6.06-20.22h11.85v20.22h0Zm793.7,248.96h-20.58v20.22h20.58v-20.22h0Zm-79.79-75.26h-20.56v20.22h20.56v-20.22h0Zm823.69,74.76h-20.55v20.22h20.55v-20.22h0Zm-717.37,42.26h-20.57v20.54h20.57v-20.54h0Zm-470.27-48.31h-20.56v20.55h20.56v-20.55h0Zm534.87-92.39h-20.57v20.55h20.57v-20.55h0Zm89.66,97.96h-20.55v20.55h20.55v-20.55h0Zm-387.74-20.04h-20.58v20.59h20.58v-20.59h0Zm719.83-88.11h-20.55v20.59h20.55v-20.59h0Zm-714.75,163.65h-20.58v20.56h20.58v-20.56h0Zm299.87-15.53h-20.56v20.55h20.56v-20.55h0Zm328.1-14.38h-20.55v20.56h20.55v-20.56h0Zm-763.83-56.85h-20.57v20.58h20.57v-20.58h0Zm-343.8-162.75h-20.56v-20.22h20.56v20.22h0Zm-27.82-88.28h-20.57v-20.22h20.57v20.22h0Zm28.92,0h-20.53v-20.22h20.53v20.22h0Zm28.96,0h-20.57v-20.22h20.57v20.22h0Zm28.94,0h-20.55v-20.22h20.55v20.22h0Zm28.95,0h-20.56v-20.22h20.56v20.22h0Zm57.88,0h-20.57v-20.22h20.57v20.22h0Zm57.9,0h-20.56v-20.22h20.56v20.22h0Zm28.93,0h-20.58v-20.22h20.58v20.22h0Zm57.9,0h-20.58v-20.22h20.58v20.22h0Zm57.87,0h-20.57v-20.22h20.57v20.22h0Zm62.23,59.84h-20.56v-20.22h20.56v20.22h0Zm-4.35-59.84h-20.55v-20.22h20.55v20.22h0Zm25.01,116.76h-20.59v-20.22h20.59v20.22h0Zm-275.44,13.12h-20.53v-20.22h20.53v20.22h0Zm337.26-129.88h-20.57v-20.22h20.57v20.22h0Zm28.96,0h-20.57v-20.22h20.57v20.22h0Zm86.82,0h-20.56v-20.22h20.56v20.22h0Zm28.94,0h-20.59v-20.22h20.59v20.22h0Zm86.82,0h-20.56v-20.22h20.56v20.22h0Zm28.94,0h-20.55v-20.22h20.55v20.22h0Zm144.72,0h-20.55v-20.22h20.55v20.22h0Zm28.94,0h-20.55v-20.22h20.55v20.22h0Zm-161.57,75.05h-20.56v-20.22h20.56v20.22h0Zm219.46-75.05h-20.55v-20.22h20.55v20.22h0Zm-20.63,34.64h-20.55v-20.22h20.55v20.22h0Zm136.41-34.64h-20.56v-20.22h20.56v20.22h0Zm28.94,0h-20.55v-20.22h20.55v20.22h0Zm28.94,0h-20.56v-20.22h20.56v20.22h0Zm28.94,0h-20.56v-20.22h20.56v20.22h0Zm28.94,0h-20.55v-20.22h20.55v20.22h0Zm57.89,0h-20.56v-20.22h20.56v20.22h0Zm28.94,0h-20.56v-20.22h20.56v20.22h0Zm28.94,0h-20.55v-20.22h20.55v20.22h0Zm28.95,0h-20.55v-20.22h20.55v20.22h0Zm60.12,9.24h-20.55v-20.22h20.55v20.22h0ZM53.28,607.94h-9.19c2.24-6.89,4.55-13.74,6.97-20.54h2.22v20.54h0Zm28.94,0h-20.55v-20.54h20.55v20.54h0Zm144.74,0h-20.56v-20.54h20.56v20.54h0Zm57.88,0h-20.57v-20.54h20.57v20.54h0Zm28.95,0h-20.56v-20.54h20.56v20.54h0Zm95.81,82.5h-20.58v-20.55h20.58v20.55h0Zm-56.17-12.98h-20.58v-20.55h20.58v20.55h0Zm76.14-69.52h-20.58v-20.54h20.58v20.54h0Zm86.81,0h-20.56v-20.54h20.56v20.54h0Zm120.96,97.12h-20.55v-20.54h20.55v20.54h0Zm-63.07-97.12h-20.59v-20.54h20.59v20.54h0Zm28.92,0h-20.53v-20.54h20.53v20.54h0Zm28.96,0h-20.57v-20.54h20.57v20.54h0Zm86.86,0h-20.58v-20.54h20.58v20.54h0Zm28.92,0h-20.56v-20.54h20.56v20.54h0Zm28.94,0h-20.59v-20.54h20.59v20.54h0Zm28.94,0h-20.55v-20.54h20.55v20.54h0Zm28.93,0h-20.54v-20.54h20.54v20.54h0Zm28.95,0h-20.56v-20.54h20.56v20.54h0Zm28.94,0h-20.55v-20.54h20.55v20.54h0Zm28.94,0h-20.55v-20.54h20.55v20.54h0Zm86.83,0h-20.56v-20.54h20.56v20.54h0Zm28.94,0h-20.55v-20.54h20.55v20.54h0Zm28.94,0h-20.55v-20.54h20.55v20.54h0Zm28.95,0h-20.56v-20.54h20.56v20.54h0Zm28.94,0h-20.55v-20.54h20.55v20.54h0Zm-83.33,69.32h-20.56v-20.55h20.56v20.55h0Zm141.21-69.32h-20.55v-20.54h20.55v20.54h0Zm28.94,0h-20.55v-20.54h20.55v20.54h0Zm28.94,0h-20.56v-20.54h20.56v20.54h0Zm105.1,88.84h-20.56v-20.54h20.56v20.54h0Zm-47.21-88.84h-20.56v-20.54h20.56v20.54h0Zm86.83,0h-20.55v-20.54h20.55v20.54h0Zm28.94,0h-20.56v-20.54h20.56v20.54h0Zm57.88,0h-20.55v-20.54h20.55v20.54h0Zm28.95,0h-20.55v-20.54h20.55v20.54h0Zm28.94,0h-20.56v-20.54h20.56v20.54h0Zm62.13,4.86c2.42,6.8,4.74,13.66,6.97,20.54h-15.6v-20.54h8.63ZM20.56,587.83H0v-19.86l.27-.68H20.56v20.55h0Zm119.56-8.83h-20.53v-20.55h20.53v20.55h0Zm28.96,0h-20.57v-20.55h20.57v20.55h0Zm28.94,0h-20.55v-20.55h20.55v20.55h0Zm57.87,0h-20.56v-20.55h20.56v20.55h0Zm115.79,0h-20.58v-20.55h20.58v20.55h0Zm28.93,0h-20.58v-20.55h20.58v20.55h0Zm28.97,0h-20.58v-20.55h20.58v20.55h0Zm57.87,0h-20.57v-20.55h20.57v20.55h0Zm28.94,0h-20.56v-20.55h20.56v20.55h0Zm28.94,0h-20.55v-20.55h20.55v20.55h0Zm57.87,0h-20.53v-20.55h20.53v20.55h0Zm86.85,0h-20.58v-20.55h20.58v20.55h0Zm57.88,0h-20.56v-20.55h20.56v20.55h0Zm28.94,0h-20.59v-20.55h20.59v20.55h0Zm57.87,0h-20.54v-20.55h20.54v20.55h0Zm57.89,0h-20.55v-20.55h20.55v20.55h0Zm28.94,0h-20.55v-20.55h20.55v20.55h0Zm28.95,0h-20.56v-20.55h20.56v20.55h0Zm28.94,0h-20.55v-20.55h20.55v20.55h0Zm57.89,0h-20.55v-20.55h20.55v20.55h0Zm28.94,0h-20.55v-20.55h20.55v20.55h0Zm104.12,103.49h-20.55v-20.55h20.55v20.55h0Zm-46.23-103.49h-20.55v-20.55h20.55v20.55h0Zm28.94,0h-20.56v-20.55h20.56v20.55h0Zm57.88,0h-20.55v-20.55h20.55v20.55h0Zm86.83,0h-20.56v-20.55h20.56v20.55h0Zm28.94,0h-20.56v-20.55h20.56v20.55h0Zm28.94,0h-20.55v-20.55h20.55v20.55h0Zm57.89,0h-20.56v-20.55h20.56v20.55h0Zm28.94,0h-20.56v-20.55h20.56v20.55h0Zm115.77,0h-20.55v-20.55h20.55v20.55h0Zm8.39-14.82c1.91,4.91,3.77,9.86,5.58,14.82h-5.58v-14.82h0Zm-1484.49-14.12h-16.85c2.84-6.91,5.76-13.79,8.78-20.6h8.06v20.6h0Zm28.96,0h-20.57v-20.6h20.57v20.6h0Zm28.92,0h-20.53v-20.6h20.53v20.6h0Zm86.85,0h-20.56v-20.6h20.56v20.6h0Zm28.92,0h-20.56v-20.6h20.56v20.6h0Zm28.96,0h-20.57v-20.6h20.57v20.6h0Zm57.9,0h-20.56v-20.6h20.56v20.6h0Zm28.93,0h-20.58v-20.6h20.58v20.6h0Zm86.81,0h-20.55v-20.6h20.55v20.6h0Zm57.9,0h-20.56v-20.59h20.56v20.59h0Zm28.94,0h-20.55v-20.59h20.55v20.59h0Zm28.95,0h-20.59v-20.59h20.59v20.59h0Zm28.92,0h-20.53v-20.59h20.53v20.59h0Zm28.96,0h-20.57v-20.59h20.57v20.59h0Zm28.96,0h-20.57v-20.59h20.57v20.59h0Zm28.94,0h-20.58v-20.59h20.58v20.59h0Zm57.88,0h-20.56v-20.59h20.56v20.59h0Zm28.94,0h-20.59v-20.59h20.59v20.59h0Zm57.87,0h-20.54v-20.59h20.54v20.59h0Zm28.95,0h-20.56v-20.59h20.56v20.59h0Zm28.94,0h-20.55v-20.59h20.55v20.59h0Zm57.89,0h-20.56v-20.59h20.56v20.59h0Zm28.94,0h-20.55v-20.59h20.55v20.59h0Zm57.89,0h-20.55v-20.59h20.55v20.59h0Zm57.88,0h-20.56v-20.59h20.56v20.59h0Zm28.94,0h-20.55v-20.59h20.55v20.59h0Zm57.88,0h-20.55v-20.59h20.55v20.59h0Zm28.94,0h-20.55v-20.59h20.55v20.59h0Zm28.94,0h-20.56v-20.59h20.56v20.59h0Zm28.94,0h-20.55v-20.59h20.55v20.59h0Zm57.89,0h-20.56v-20.59h20.56v20.59h0Zm115.77,0h-20.56v-20.59h20.56v20.59h0Zm28.94,0h-20.55v-20.59h20.55v20.59h0Zm28.95,0h-20.55v-20.59h20.55v20.59h0Zm130.55,76.21h-20.55v-20.59h20.55v20.59h0ZM82.23,521.12h-4.25c1.4-3.06,2.82-6.11,4.25-9.15v9.15h0Zm86.84,0h-20.57v-20.56h20.57v20.56h0Zm28.94,0h-20.55v-20.56h20.55v20.56h0Zm57.87,0h-20.56v-20.56h20.56v20.56h0Zm28.96,0h-20.57v-20.56h20.57v20.56h0Zm28.95,0h-20.56v-20.56h20.56v20.56h0Zm28.95,0h-20.56v-20.56h20.56v20.56h0Zm28.93,0h-20.58v-20.56h20.58v20.56h0Zm28.93,0h-20.58v-20.56h20.58v20.56h0Zm115.78,0h-20.56v-20.56h20.56v20.56h0Zm28.94,0h-20.55v-20.56h20.55v20.56h0Zm57.87,0h-20.53v-20.56h20.53v20.56h0Zm28.96,0h-20.57v-20.56h20.57v20.56h0Zm28.96,0h-20.57v-20.56h20.57v20.56h0Zm57.9,0h-20.58v-20.56h20.58v20.56h0Zm28.92,0h-20.56v-20.56h20.56v20.56h0Zm28.94,0h-20.59v-20.56h20.59v20.56h0Zm28.94,0h-20.55v-20.56h20.55v20.56h0Zm28.93,0h-20.54v-20.56h20.54v20.56h0Zm86.83,0h-20.55v-20.56h20.55v20.56h0Zm57.89,0h-20.55v-20.56h20.55v20.56h0Zm28.94,0h-20.56v-20.56h20.56v20.56h0Zm101.28,267.83h-20.55v-20.56h20.55v20.56h0Zm-43.39-267.83h-20.55v-20.56h20.55v20.56h0Zm28.95,0h-20.56v-20.56h20.56v20.56h0Zm57.89,0h-20.56v-20.56h20.56v20.56h0Zm57.88,0h-20.55v-20.57h20.55v20.57h0Zm28.94,0h-20.56v-20.57h20.56v20.57h0Zm57.89,0h-20.56v-20.57h20.56v20.57h0Zm28.94,0h-20.56v-20.57h20.56v20.57h0Zm57.88,0h-20.55v-20.57h20.55v20.57h0Zm28.94,0h-20.56v-20.57h20.56v20.57h0Zm57.88,0h-20.55v-20.57h20.55v20.57h0Zm62.43-25.4h-20.55v-20.56h20.55v20.56h0Zm94.76,63.51h-20.55v-20.56h20.55v20.56h0Zm-90-58.67c3.35,6.79,6.59,13.66,9.75,20.57h-10.66v-20.57h.91Zm-1427.5-8.36h-19.25c3.51-6.91,7.09-13.78,10.79-20.57h8.47v20.57h0Zm57.88,0h-20.57v-20.57h20.57v20.57h0Zm86.81,0h-20.56v-20.57h20.56v20.57h0Zm28.96,0h-20.57v-20.57h20.57v20.57h0Zm28.95,0h-20.56v-20.57h20.56v20.57h0Zm28.95,0h-20.56v-20.57h20.56v20.57h0Zm373.97,299.12h-20.58v-20.57h20.58v20.57h0ZM400.61,492.2h-20.58v-20.57h20.58v20.57h0Zm28.97,0h-20.58v-20.57h20.58v20.57h0Zm28.91,0h-20.55v-20.57h20.55v20.57h0Zm28.96,0h-20.57v-20.57h20.57v20.57h0Zm86.83,0h-20.59v-20.57h20.59v20.57h0Zm57.88,0h-20.57v-20.57h20.57v20.57h0Zm28.96,0h-20.57v-20.57h20.57v20.57h0Zm28.94,0h-20.58v-20.57h20.58v20.57h0Zm28.97,0h-20.58v-20.57h20.58v20.57h0Zm57.86,0h-20.59v-20.57h20.59v20.57h0Zm86.82,0h-20.56v-20.57h20.56v20.57h0Zm28.94,0h-20.55v-20.57h20.55v20.57h0Zm57.89,0h-20.56v-20.57h20.56v20.57h0Zm28.94,0h-20.55v-20.57h20.55v20.57h0Zm86.83,0h-20.55v-20.57h20.55v20.57h0Zm28.95,0h-20.56v-20.57h20.56v20.57h0Zm28.94,0h-20.55v-20.57h20.55v20.57h0Zm28.94,0h-20.56v-20.57h20.56v20.57h0Zm64.81,204.38h-20.55v-20.58h20.55v20.58h0Zm22.01-204.38h-20.56v-20.57h20.56v20.57h0Zm28.94,0h-20.55v-20.57h20.55v20.57h0Zm86.83,0h-20.55v-20.57h20.55v20.57h0Zm28.94,0h-20.55v-20.57h20.55v20.57h0Zm28.94,0h-20.56v-20.57h20.56v20.57h0Zm28.94,0h-20.56v-20.57h20.56v20.57h0Zm166.35-36.95h-20.56v-20.57h20.56v20.57h0Zm-106.16,50.8h-20.55v-20.57h20.55v20.57h0Zm57.89-99.09c1.93,3.55,3.83,7.11,5.7,10.7v9.88h-20.55v-20.58h14.86ZM111.19,463.23h-3.8c1.25-2.24,2.53-4.48,3.8-6.71v6.71h0Zm28.92,0h-20.53v-20.58h20.53v20.58h0Zm57.9,0h-20.55v-20.58h20.55v20.58h0Zm28.95,0h-20.56v-20.58h20.56v20.58h0Zm57.88,0h-20.57v-20.58h20.57v20.58h0Zm57.9,0h-20.56v-20.58h20.56v20.58h0Zm28.93,0h-20.58v-20.58h20.58v20.58h0Zm86.81,0h-20.55v-20.58h20.55v20.58h0Zm28.96,0h-20.57v-20.58h20.57v20.58h0Zm28.94,0h-20.56v-20.58h20.56v20.58h0Zm57.89,0h-20.59v-20.58h20.59v20.58h0Zm28.92,0h-20.53v-20.58h20.53v20.58h0Zm405.21,0h-20.56v-20.57h20.56v20.57h0Zm57.88,0h-20.55v-20.57h20.55v20.57h0Zm57.89,0h-20.55v-20.57h20.55v20.57h0Zm103.23,357.76h-20.55v-20.57h20.55v20.57h0Zm-45.35-357.76h-20.55v-20.57h20.55v20.57h0Zm28.94,0h-20.55v-20.57h20.55v20.57h0Zm28.94,0h-20.56v-20.57h20.56v20.57h0Zm57.89,0h-20.56v-20.57h20.56v20.57h0Zm169.23,214.78h-20.56v-20.58h20.56v20.58h0Zm-53.46-214.78h-20.56v-20.57h20.56v20.57h0Zm28.94,0h-20.56v-20.57h20.56v20.57h0Zm87.83-66.97h-20.56v-20.58h20.56v20.58h0Zm47.42,95.84h-20.55v-20.58h20.55v20.58h0Zm-68.98-46.59c3.47,5.86,6.86,11.77,10.19,17.72h-10.19v-17.72h0Zm-1368.72-11.22h-15.72c4.26-6.92,8.61-13.79,13.08-20.57h2.64v20.57h0Zm57.9,0h-20.55v-20.57h20.55v20.57h0Zm28.95,0h-20.56v-20.57h20.56v20.57h0Zm57.88,0h-20.57v-20.57h20.57v20.57h0Zm28.95,0h-20.56v-20.57h20.56v20.57h0Zm57.88,0h-20.58v-20.57h20.58v20.57h0Zm57.9,0h-20.58v-20.57h20.58v20.57h0Zm28.91,0h-20.55v-20.57h20.55v20.57h0Zm57.9,0h-20.56v-20.57h20.56v20.57h0Zm28.94,0h-20.55v-20.57h20.55v20.57h0Zm28.95,0h-20.59v-20.57h20.59v20.57h0Zm57.88,0h-20.57v-20.57h20.57v20.57h0Zm405.2,0h-20.55v-20.58h20.55v20.58h0Zm28.94,0h-20.55v-20.58h20.55v20.58h0Zm28.95,0h-20.56v-20.58h20.56v20.58h0Zm57.89,0h-20.56v-20.58h20.56v20.58h0Zm28.94,0h-20.55v-20.58h20.55v20.58h0Zm28.94,0h-20.55v-20.58h20.55v20.58h0Zm57.89,0h-20.55v-20.58h20.55v20.58h0Zm28.94,0h-20.56v-20.58h20.56v20.58h0Zm86.83,0h-20.55v-20.58h20.55v20.58h0Zm28.94,0h-20.56v-20.58h20.56v20.58h0Zm145.65-156.43h-20.56v-20.57h20.56v20.57h0Zm-91.1,158.95c3.91,5.95,7.74,11.97,11.5,18.03v2.55h-20.56v-20.58h9.05Zm-1299.09-31.48h-20.57v-7.9c2.96-4.26,5.95-8.49,8.98-12.68h11.58v20.59h0Zm28.94,0h-20.55v-20.59h20.55v20.59h0Zm-3.37-32.39h-20.56v-20.59h20.56v20.59h0Zm61.24,32.39h-20.56v-20.59h20.56v20.59h0Zm28.96,0h-20.57v-20.59h20.57v20.59h0Zm28.95,0h-20.56v-20.59h20.56v20.59h0Zm57.88,0h-20.58v-20.59h20.58v20.59h0Zm57.9,0h-20.58v-20.59h20.58v20.59h0Zm28.91,0h-20.55v-20.59h20.55v20.59h0Zm28.96,0h-20.57v-20.59h20.57v20.59h0Zm57.88,0h-20.55v-20.59h20.55v20.59h0Zm86.83,0h-20.57v-20.59h20.57v20.59h0Zm405.2,0h-20.55v-20.58h20.55v20.58h0Zm57.88,0h-20.56v-20.58h20.56v20.58h0Zm57.89,0h-20.56v-20.58h20.56v20.58h0Zm28.94,0h-20.55v-20.58h20.55v20.58h0Zm57.89,0h-20.56v-20.58h20.56v20.58h0Zm28.94,0h-20.55v-20.58h20.55v20.58h0Zm57.89,0h-20.56v-20.58h20.56v20.58h0Zm57.88,0h-20.55v-20.58h20.55v20.58h0Zm28.94,0h-20.56v-20.58h20.56v20.58h0Zm28.94,0h-20.56v-20.58h20.56v20.58h0Zm37.33-5.03c1.15,1.67,2.3,3.35,3.43,5.03h-3.43v-5.03h0Zm-10.96-15.55l2.56,3.58v17h-20.55v-20.58h17.99ZM188.9,332.23h-5.49c1.81-2.44,3.65-4.88,5.49-7.3v7.3h0Zm-24.66,10.39h-20.56v-18.12l1.92-2.43h18.64v20.55h0Zm-19.55-32.04h-20.56v-20.55h20.56v20.55h0Zm198.05,65.81h-20.56v-20.55h20.56v20.55h0Zm28.93,0h-20.58v-20.55h20.58v20.55h0Zm28.93,0h-20.58v-20.55h20.58v20.55h0Zm57.88,0h-20.55v-20.55h20.55v20.55h0Zm28.96,0h-20.57v-20.55h20.57v20.55h0Zm28.94,0h-20.56v-20.55h20.56v20.55h0Zm28.94,0h-20.55v-20.55h20.55v20.55h0Zm28.95,0h-20.59v-20.55h20.59v20.55h0Zm28.92,0h-20.53v-20.55h20.53v20.55h0Zm405.21,0h-20.56v-20.56h20.56v20.56h0Zm28.94,0h-20.55v-20.56h20.55v20.56h0Zm28.94,0h-20.55v-20.56h20.55v20.56h0Zm28.95,0h-20.56v-20.56h20.56v20.56h0Zm57.89,0h-20.56v-20.56h20.56v20.56h0Zm57.88,0h-20.55v-20.56h20.55v20.56h0Zm277.71-29.53h-20.55v-20.55h20.55v20.55h0Zm-190.88,29.53h-20.56v-20.56h20.56v20.56h0Zm28.94,0h-20.56v-20.56h20.56v20.56h0Zm28.94,0h-20.55v-20.56h20.55v20.56h0Zm168.38-167.6h-20.55v-20.56h20.55v20.56h0Zm-73.16,152.01c4.03,5.14,8,10.34,11.9,15.59h-11.9v-15.59h0Zm-1233.83-4.15h-11.91c3.92-4.81,7.89-9.58,11.91-14.29v14.29h0Zm-27.05-78.58h-20.56v-20.59h20.56v20.59h0Zm123.73,69.38h-20.56v-20.59h20.56v20.59h0Zm86.82,0h-20.58v-20.59h20.58v20.59h0Zm28.97,0h-20.58v-20.59h20.58v20.59h0Zm28.91,0h-20.55v-20.59h20.55v20.59h0Zm57.9,0h-20.56v-20.59h20.56v20.59h0Zm57.89,0h-20.59v-20.59h20.59v20.59h0Zm434.14,0h-20.56v-20.59h20.56v20.59h0Zm28.94,0h-20.55v-20.59h20.55v20.59h0Zm57.88,0h-20.56v-20.59h20.56v20.59h0Zm57.89,0h-20.56v-20.59h20.56v20.59h0Zm28.94,0h-20.55v-20.59h20.55v20.59h0Zm86.83,0h-20.55v-20.59h20.55v20.59h0Zm28.94,0h-20.56v-20.59h20.56v20.59h0Zm86.83,0h-20.55v-20.59h20.55v20.59h0Zm28.94,0h-20.56v-20.59h20.56v20.59h0Zm-1173.79-31.52h-16.12c5.29-5.9,10.66-11.73,16.12-17.48v17.48h0Zm49.86-92.6h-20.56v-20.55h20.56v20.55h0Zm-25.67,63.54h-20.57v-20.55h20.57v20.55h0Zm107.66,31.63h-20.58v-20.55h20.58v20.55h0Zm144.71,0h-20.56v-20.55h20.56v20.55h0Zm28.94,0h-20.55v-20.55h20.55v20.55h0Zm28.95,0h-20.59v-20.55h20.59v20.55h0Zm57.88,0h-20.57v-20.55h20.57v20.55h0Zm28.96,0h-20.57v-20.55h20.57v20.55h0Zm57.9,0h-20.58v-20.55h20.58v20.55h0Zm57.86,0h-20.59v-20.55h20.59v20.55h0Zm28.94,0h-20.55v-20.55h20.55v20.55h0Zm28.93,0h-20.54v-20.55h20.54v20.55h0Zm57.89,0h-20.55v-20.55h20.55v20.55h0Zm28.94,0h-20.55v-20.55h20.55v20.55h0Zm57.89,0h-20.55v-20.55h20.55v20.55h0Zm28.94,0h-20.56v-20.55h20.56v20.55h0Zm57.88,0h-20.55v-20.55h20.55v20.55h0Zm28.95,0h-20.56v-20.55h20.56v20.55h0Zm57.89,0h-20.56v-20.55h20.56v20.55h0Zm57.88,0h-20.55v-20.55h20.55v20.55h0Zm28.94,0h-20.56v-20.55h20.56v20.55h0Zm28.94,0h-20.55v-20.55h20.55v20.55h0Zm28.94,0h-20.56v-20.55h20.56v20.55h0Zm57.88,0h-20.55v-20.55h20.55v20.55h0Zm40.79-20.55c5.79,6.04,11.48,12.16,17.09,18.37v2.18h-20.56v-20.55h3.46ZM235.38,260.22h-17.86c5.86-5.93,11.82-11.78,17.86-17.53v17.53h0Zm60.85,2.93h-20.57v-20.56h20.57v20.56h0Zm-86.26,39.79h-20.56v-20.56h20.56v20.56h0Zm116.32-50.61h-20.56v-20.56h20.56v20.56h0Zm45.39,37.24h-20.58v-20.56h20.58v20.56h0Zm28.93,0h-20.58v-20.56h20.58v20.56h0Zm57.88,0h-20.55v-20.56h20.55v20.56h0Zm57.9,0h-20.56v-20.56h20.56v20.56h0Zm86.81,0h-20.53v-20.56h20.53v20.56h0Zm86.85,0h-20.58v-20.56h20.58v20.56h0Zm28.97,0h-20.58v-20.56h20.58v20.56h0Zm28.92,0h-20.56v-20.56h20.56v20.56h0Zm28.95,0h-20.59v-20.56h20.59v20.56h0Zm57.87,0h-20.54v-20.56h20.54v20.56h0Zm57.89,0h-20.55v-20.56h20.55v20.56h0Zm86.83,0h-20.55v-20.56h20.55v20.56h0Zm28.94,0h-20.56v-20.56h20.56v20.56h0Zm28.94,0h-20.55v-20.56h20.55v20.56h0Zm57.88,0h-20.56v-20.56h20.56v20.56h0Zm28.94,0h-20.55v-20.56h20.55v20.56h0Zm57.88,0h-20.55v-20.56h20.55v20.56h0Zm57.89,0h-20.56v-20.56h20.56v20.56h0Zm57.89,0h-20.56v-20.56h20.56v20.56h0Zm28.94,0h-20.56v-20.56h20.56v20.56h0Zm40.54-20.56c5.86,5.52,11.64,11.12,17.34,16.81v3.74h-20.55v-20.56h3.21Zm-1105.27-15.57h-16.68c5.49-5.01,11.06-9.96,16.68-14.82v14.82h0Zm37.39,59.14h-20.56v-20.57h20.56v20.57h0Zm72.23-51.96h-20.58v-20.57h20.58v20.57h0Zm28.93,0h-20.58v-20.57h20.58v20.57h0Zm28.97,0h-20.58v-20.57h20.58v20.57h0Zm57.87,0h-20.57v-20.57h20.57v20.57h0Zm28.94,0h-20.56v-20.57h20.56v20.57h0Zm28.94,0h-20.55v-20.57h20.55v20.57h0Zm28.95,0h-20.59v-20.57h20.59v20.57h0Zm28.92,0h-20.53v-20.57h20.53v20.57h0Zm28.96,0h-20.57v-20.57h20.57v20.57h0Zm28.96,0h-20.57v-20.57h20.57v20.57h0Zm57.9,0h-20.58v-20.57h20.58v20.57h0Zm28.92,0h-20.56v-20.57h20.56v20.57h0Zm28.95,0h-20.59v-20.57h20.59v20.57h0Zm28.94,0h-20.55v-20.57h20.55v20.57h0Zm57.88,0h-20.56v-20.57h20.56v20.57h0Zm28.94,0h-20.55v-20.57h20.55v20.57h0Zm28.94,0h-20.55v-20.57h20.55v20.57h0Zm28.95,0h-20.56v-20.57h20.56v20.57h0Zm144.71,0h-20.56v-20.57h20.56v20.57h0Zm57.89,0h-20.56v-20.57h20.56v20.57h0Zm28.94,0h-20.55v-20.57h20.55v20.57h0Zm28.94,0h-20.55v-20.57h20.55v20.57h0Zm57.89,0h-20.55v-20.57h20.55v20.57h0Zm34.67-114.16h-20.55v-20.57h20.55v20.57h0Zm46.86,61.03h-20.55v-20.57h20.55v20.57h0Zm-15.25,32.84c6.95,5.88,13.81,11.88,20.55,17.99v2.3h-20.55v-20.3h0Zm-1019.76-39.32h-12.14c4.01-3.28,8.06-6.53,12.14-9.74v9.74h0Zm-124.74-6.58h-20.57v-20.53h20.57v20.53h0Zm209.93,37.24h-20.58v-20.53h20.58v20.53h0Zm28.97,0h-20.58v-20.53h20.58v20.53h0Zm28.91,0h-20.55v-20.53h20.55v20.53h0Zm28.96,0h-20.57v-20.53h20.57v20.53h0Zm28.94,0h-20.56v-20.53h20.56v20.53h0Zm28.94,0h-20.55v-20.53h20.55v20.53h0Zm57.87,0h-20.53v-20.53h20.53v20.53h0Zm57.92,0h-20.57v-20.53h20.57v20.53h0Zm57.9,0h-20.58v-20.53h20.58v20.53h0Zm115.73,0h-20.54v-20.53h20.54v20.53h0Zm28.95,0h-20.56v-20.53h20.56v20.53h0Zm115.77,0h-20.55v-20.53h20.55v20.53h0Zm28.94,0h-20.56v-20.53h20.56v20.53h0Zm28.94,0h-20.55v-20.53h20.55v20.53h0Zm28.94,0h-20.55v-20.53h20.55v20.53h0Zm28.95,0h-20.56v-20.53h20.56v20.53h0Zm28.94,0h-20.55v-20.53h20.55v20.53h0Zm57.88,0h-20.55v-20.53h20.55v20.53h0Zm28.94,0h-20.55v-20.53h20.55v20.53h0Zm92.72-41.64h-20.56v-20.53h20.56v20.53h0Zm98.72,35.18h-20.56v-20.53h20.56v20.53h0Zm-96.22-8.26c6.25,4.82,12.43,9.73,18.53,14.72h-18.53v-14.72h0Zm-963.49-14.2h-3.57l3.57-2.57v2.57h0Zm15.08-54.56h-20.58v-8.48c5.88-4.11,11.82-8.13,17.81-12.08h2.77v20.56h0Zm-168.52,87.47h-20.58v-20.56h20.58v20.56h0Zm269.18-32.91h-20.55v-20.57h20.55v20.57h0Zm-129.78-92.95h-20.57v-20.57h20.57v20.57h0Zm216.63,92.95h-20.55v-20.57h20.55v20.57h0Zm28.95,0h-20.59v-20.57h20.59v20.57h0Zm28.92,0h-20.53v-20.57h20.53v20.57h0Zm57.92,0h-20.57v-20.57h20.57v20.57h0Zm28.94,0h-20.58v-20.57h20.58v20.57h0Zm86.83,0h-20.59v-20.57h20.59v20.57h0Zm28.94,0h-20.55v-20.57h20.55v20.57h0Zm28.93,0h-20.54v-20.57h20.54v20.57h0Zm57.89,0h-20.55v-20.57h20.55v20.57h0Zm28.94,0h-20.55v-20.57h20.55v20.57h0Zm28.95,0h-20.56v-20.57h20.56v20.57h0Zm86.83,0h-20.55v-20.57h20.55v20.57h0Zm57.88,0h-20.56v-20.57h20.56v20.57h0Zm29.94-115.6h-20.56v-20.57h20.56v20.57h0Zm56.88,115.6h-20.55v-20.57h20.55v20.57h0Zm23.21-28h-20.56v-20.56h20.56v20.56h0Zm139.28-18.67h-20.55v-20.57h20.55v20.57h0Zm-81.33-7.64c3.82,2.52,7.62,5.07,11.39,7.65v12.92h-20.55v-20.57h9.16ZM354.66,78.75h-18.7c6.18-3.9,12.41-7.74,18.7-11.5v11.5h0Zm103.83,95.04h-20.55v-20.56h20.55v20.56h0Zm57.9,0h-20.56v-20.56h20.56v20.56h0Zm28.94,0h-20.55v-20.56h20.55v20.56h0Zm-138.02-54.09h-20.59v-20.56h20.59v20.56h0Zm195.89,54.09h-20.53v-20.56h20.53v20.56h0Zm28.96,0h-20.57v-20.56h20.57v20.56h0Zm57.9,0h-20.58v-20.56h20.58v20.56h0Zm28.97,0h-20.58v-20.56h20.58v20.56h0Zm28.92,0h-20.56v-20.56h20.56v20.56h0Zm28.95,0h-20.59v-20.56h20.59v20.56h0Zm57.87,0h-20.54v-20.56h20.54v20.56h0Zm28.95,0h-20.56v-20.56h20.56v20.56h0Zm28.94,0h-20.55v-20.56h20.55v20.56h0Zm115.77,0h-20.56v-20.56h20.56v20.56h0Zm28.94,0h-20.55v-20.56h20.55v20.56h0Zm28.94,0h-20.55v-20.56h20.55v20.56h0Zm57.89,0h-20.55v-20.56h20.55v20.56h0Zm33.24-48.11h-20.56v-20.56h20.56v20.56h0Zm74.08-5.03h-20.55v-20.56h20.55v20.56h0Zm-12.11,37.85c6.92,4.04,13.77,8.18,20.56,12.42v2.86h-20.56v-15.28h0Zm48.84-43.33l.8,.46v20.1h-20.55v-20.56h19.75ZM442.82,47.72h-20.55v-3.43c6.8-3.57,13.65-7.05,20.55-10.43v13.86h0Zm-24.3,31.33h-20.57v-17.91c1.88-.89,3.76-1.77,5.65-2.65h14.93v20.56h0Zm136.21-58.49h-20.55V0h20.55V20.56h0Zm19.55,124.28h-20.59v-20.56h20.59v20.56h0Zm28.92,0h-20.53v-20.56h20.53v20.56h0Zm28.96,0h-20.57v-20.56h20.57v20.56h0Zm86.86,0h-20.58v-20.56h20.58v20.56h0Zm57.86,0h-20.59v-20.56h20.59v20.56h0Zm28.94,0h-20.55v-20.56h20.55v20.56h0Zm28.93,0h-20.54v-20.56h20.54v20.56h0Zm28.95,0h-20.56v-20.56h20.56v20.56h0Zm28.94,0h-20.55v-20.56h20.55v20.56h0Zm57.89,0h-20.56v-20.56h20.56v20.56h0Zm28.94,0h-20.55v-20.56h20.55v20.56h0Zm57.89,0h-20.55v-20.56h20.55v20.56h0Zm28.94,0h-20.55v-20.56h20.55v20.56h0Zm57.89,0h-20.55v-20.56h20.55v20.56h0Zm59.75-49.54h-20.55v-20.56h20.55v20.56h0Zm-22.42,32.58c6.9,3.3,13.76,6.71,20.55,10.2v6.77h-20.55v-16.96h0ZM473.57,12.53h-20.56v-2.03c6.8-2.91,13.66-5.72,20.56-8.45V12.53h0Zm64.44,63.71h-20.55v-13.73c6.16-2.35,12.35-4.62,18.57-6.83h1.97v20.57h0Zm36.26,39.69h-20.59v-20.57h20.59v20.57h0Zm57.88,0h-20.57v-20.57h20.57v20.57h0Zm28.96,0h-20.57v-20.57h20.57v20.57h0Zm28.94,0h-20.58v-20.57h20.58v20.57h0Zm28.97,0h-20.58v-20.57h20.58v20.57h0Zm28.92,0h-20.56v-20.57h20.56v20.57h0Zm28.95,0h-20.59v-20.57h20.59v20.57h0Zm57.87,0h-20.54v-20.57h20.54v20.57h0Zm57.89,0h-20.55v-20.57h20.55v20.57h0Zm28.94,0h-20.55v-20.57h20.55v20.57h0Zm57.89,0h-20.55v-20.57h20.55v20.57h0Zm57.89,0h-20.55v-20.57h20.55v20.57h0Zm28.94,0h-20.55v-20.57h20.55v20.57h0Zm37.33-12.98c6.89,2.65,13.75,5.4,20.55,8.24v4.73h-20.55v-12.98h0Zm-20.57-7.59c4.08,1.44,8.14,2.92,12.18,4.42v16.15h-20.56v-20.57h8.37ZM602.15,30.58h-20.53v-4.42c6.81-2.02,13.65-3.96,20.53-5.81v10.23h0Zm30,56.4h-20.57v-12.44c6.82-1.75,13.68-3.42,20.57-5v17.44h0Zm28.96,0h-20.57v-19.31c1.97-.43,3.94-.85,5.91-1.26h14.66v20.57h0Zm57.9,0h-20.58v-20.57h20.58v20.57h0Zm86.8,0h-20.55v-20.57h20.55v20.57h0Zm86.82,0h-20.55v-20.57h20.55v20.57h0Zm57.89,0h-20.56v-20.57h20.56v20.57h0Zm95.21-3.82c4.14,1.24,8.27,2.52,12.38,3.82h-12.38v-3.82h0Zm-28.94-8.1c6.89,1.79,13.74,3.68,20.55,5.64v6.29h-20.55v-11.93h0Zm-28.94-6.94c6.89,1.51,13.74,3.12,20.56,4.81v14.06h-20.56v-18.87h0Zm-268.85-10.09h-20.57v-.76c6.83-.97,13.69-1.86,20.57-2.66v3.42h0Zm28.92,0h-20.56v-4.35c6.83-.72,13.69-1.35,20.56-1.9v6.25h0Zm28.95,0h-20.59v-6.88c6.84-.48,13.71-.87,20.59-1.17v8.05h0Zm28.94,0h-20.55v-8.37c6.83-.23,13.68-.38,20.55-.44v8.81h0Zm124.15-.48l3.2,.48h-3.2v-.48h0Zm-28.94-3.66c6.88,.74,13.73,1.58,20.55,2.49v1.64h-20.55v-4.14h0Zm-28.94-2.6c6.88,.49,13.73,1.08,20.55,1.74v4.99h-20.55v-6.74h0Zm-28.94-1.57c6.88,.25,13.72,.59,20.56,1.01v7.29h-20.56v-8.3h0Z"/><path class="e" d="M237.64,237.16h-20.56v-20.59h20.56v20.59h0Zm770.77,197.14h-20.56v-20.58h20.56v20.58h0Zm0,57.89h-20.56v-20.57h20.56v20.57h0Zm173.65,28.92h-20.55v-20.57h20.55v20.57h0Zm-115.77,28.94h-20.55v-20.59h20.55v20.59h0Zm173.66-173.66h-20.56v-20.56h20.56v20.56h0Zm-57.89,0h-20.55v-20.56h20.55v20.56h0Zm-57.88-115.78h-20.55v-20.57h20.55v20.57h0Zm144.71,1107.17h-20.55v20.59h20.55v-20.59h0Zm-86.83,0h-20.55v20.59h20.55v-20.59h0Zm-260.49-28.94h-20.55v20.56h20.55v-20.56h0Zm144.71,28.94h-20.55v20.59h20.55v-20.59h0Zm-28.94,0h-20.55v20.59h20.55v-20.59h0Zm498.81-931.19h-20.56v-20.58h20.56v20.58h0Zm20.38-90.46h-20.56v-20.58h20.56v20.58h0Zm-229.75,1.3h-20.56v-20.59h20.56v20.59h0Zm28.94-57.89h-20.55v-20.56h20.55v20.56h0Zm-57.88,115.77h-20.56v-20.58h20.56v20.58h0Zm144.71-28.94h-20.56v-20.56h20.56v20.56h0Zm-19.58-49.54c5.89,6.76,11.67,13.63,17.34,20.59h-18.31v-20.59h.98Zm-14.37-70.32h-20.55v-20.56h20.55v20.56h0Zm71.81,20.92h-20.55v-20.58h20.55v20.58h0Zm-356.24,98.94h-20.55v-20.56h20.55v20.56h0Zm-57.89,28.94h-20.55v-20.58h20.55v20.58h0Zm-28.94,57.89h-20.55v-20.57h20.55v20.57h0Zm202.6-115.77h-20.56v-20.59h20.56v20.59h0Zm-28.94-57.89h-20.55v-20.56h20.55v20.56h0Zm-57.88-57.9h-20.56v-20.53h20.56v20.53h0Zm-289.43,57.9h-20.56v-20.56h20.56v20.56h0Zm538,625.45h-20.56v20.58h20.56v-20.58h0ZM165.64,833.58h-20.56v-20.54h20.56v20.54h0Zm148.16-254.59h-20.56v-20.55h20.56v20.55h0Zm347.32,0h-20.57v-20.55h20.57v20.55h0Zm66.52,372.1h-20.57v20.55h20.57v-20.55h0Zm280.22-159.57h-20.55v-20.55h20.55v20.55h0Zm131.96,106.08h-20.56v20.58h20.56v-20.58h0Zm187.59-127.45h-20.54v-20.58h20.54v20.58h0Zm-37.94-90.6h-20.56v-20.55h20.56v20.55h0Zm-53.42-7.81h-20.56v-20.55h20.56v20.55h0Zm247.4,177.74h-20.55v20.59h20.55v-20.59h0ZM451.36,978.37h-20.57v20.59h20.57v-20.59h0Zm83.21-21.57h-20.55v20.55h20.55v-20.55h0Zm792.21,497.83h-20.56v20.57h20.56v-20.57h0Zm-549.9-86.83h-20.59v20.59h20.59v-20.59h0Zm-86.83,28.94h-20.58v20.56h20.58v-20.56h0Zm-57.9,0h-20.57v20.56h20.57v-20.56h0Zm-57.88,0h-20.59v20.56h20.59v-20.56h0Zm-86.83,0h-20.57v20.56h20.57v-20.56h0Zm-57.87,0h-20.58v20.56h20.58v-20.56h0Zm115.75-173.68h-20.55v20.57h20.55v-20.57h0Zm-86.84,0h-20.55v20.57h20.55v-20.57h0Zm-86.81,0h-20.58v20.57h20.58v-20.57h0Zm-57.88,0h-20.56v20.57h20.56v-20.57h0Zm-28.95,0h-20.57v20.57h20.57v-20.57h0Zm28.95-86.8h-20.56v20.55h20.56v-20.55h0Zm0-57.54h-20.56v20.22h20.56v-20.22h0Zm28.95,0h-20.56v20.22h20.56v-20.22h0Zm665.67,433.8h-20.56v20.56h20.56v-20.56h0Zm0-28.93h-20.56v20.54h20.56v-20.54h0Zm0,115.74h-20.56v20.57h20.56v-20.57h0Zm-16.27,66.61h-20.56v20.56h20.56v-20.56h0Zm-31.59,90.8h-20.56v20.56h20.56v-20.56h0Zm53.16-29.33h-20.56v20.56h20.56v-20.56h0Zm27.88-18.56c4.08-1.44,8.14-2.92,12.18-4.42v-16.14h-20.56v20.57h8.38Zm134.98-95.33h-20.55v20.57h20.55v-20.57h0Zm-22.12,79.64h-20.55v20.57h20.55v-20.57h0Zm45.98-39.64h-20.55v20.56h20.55v-20.56h0Zm68.09-58.38l.81-.46v-20.1h-20.56v20.56h19.75Zm-24.68,12.55h-20.56v20.56h20.56v-20.56h0Zm103.37-10.05h-20.55v20.57h20.55v-20.57h0Zm-49.37-432.45h-20.56v20.59h20.56v-20.59h0Zm-28.94,57.87h-20.55v20.57h20.55v-20.57h0Zm-86.83-86.8h-20.55v20.55h20.55v-20.55h0Zm-57.88-57.54h-20.55v20.22h20.55v-20.22h0Zm-86.83,0h-20.55v20.22h20.55v-20.22h0Zm-115.78,57.54h-20.55v20.55h20.55v-20.55h0Zm-57.88-28.93h-20.56v20.55h20.56v-20.55h0Zm-86.82,0h-20.59v20.55h20.59v-20.55h0Zm-86.83,0h-20.58v20.55h20.58v-20.55h0Zm847.67,231.04c1.93-3.55,3.83-7.11,5.7-10.7v-9.88h-20.55v20.58h14.85Zm-14.54-28.92l2.57-3.57v-17h-20.55v20.57h17.99Zm79.29-41.05h-20.56v20.57h20.56v-20.57h0Zm28.65-93.26h-20.56v20.55h20.56v-20.55h0Zm-7.27-61.71h-20.55v20.22h20.55v-20.22h0Zm-38.86-14.5c.77-2.47,1.54-4.94,2.29-7.42v-12.8h-20.56v20.22h18.27Zm-32.75-62.21h-20.55v20.22h20.55v-20.22h0Zm-68.74-25.48h-20.55v20.55h20.55v-20.55h0Zm16.95,67.47h-20.55v20.22h20.55v-20.22h0Zm-28.95,28.61h-20.55v20.55h20.55v-20.55h0Zm0,57.87h-20.55v20.59h20.55v-20.59h0Zm-115.77,115.77h-20.55v20.58h20.55v-20.58h0Zm-28.94-28.93h-20.56v20.57h20.56v-20.57h0Zm-231.54-144.7h-20.56v20.55h20.56v-20.55h0Zm0,28.93h-20.56v20.55h20.56v-20.55h0Zm144.71-28.93h-20.56v20.55h20.56v-20.55h0Zm0,28.93h-20.56v20.55h20.56v-20.55h0Zm144.71,0h-20.55v20.55h20.55v-20.55h0Zm0,57.88h-20.55v20.57h20.55v-20.57h0Zm0,57.89h-20.55v20.57h20.55v-20.57h0Zm86.83,28.93h-20.55v20.58h20.55v-20.58h0Zm-28.94,0h-20.56v20.58h20.56v-20.58h0Zm-57.89,28.96h-20.55v20.58h20.55v-20.58h0Zm-57.88,0h-20.56v20.58h20.56v-20.58h0Zm-86.83-28.96h-20.56v20.58h20.56v-20.58h0Zm-57.89,28.96h-20.55v20.58h20.55v-20.58h0Zm-57.88-28.96h-20.55v20.58h20.55v-20.58h0Zm28.94-57.9h-20.56v20.57h20.56v-20.57h0Zm-202.6,57.9h-20.56v20.58h20.56v-20.58h0Zm-57.89-57.9h-20.55v20.57h20.55v-20.57h0Zm-28.94,28.96h-20.56v20.57h20.56v-20.57h0Zm0,28.93h-20.56v20.58h20.56v-20.58h0Zm-28.95,28.96h-20.54v20.58h20.54v-20.58h0Zm-28.93,0h-20.55v20.58h20.55v-20.58h0Zm115.76-115.77h-20.55v20.56h20.55v-20.56h0Zm28.95-57.89h-20.56v20.55h20.56v-20.55h0Zm57.89-28.93h-20.56v20.55h20.56v-20.55h0Zm28.94,86.82h-20.55v20.56h20.55v-20.56h0Zm28.94,115.77h-20.55v20.58h20.55v-20.58h0Zm0-57.9h-20.55v20.57h20.55v-20.57h0Zm28.95,0h-20.56v20.57h20.56v-20.57h0Zm86.83,0h-20.55v20.57h20.55v-20.57h0Zm0,86.83h-20.55v20.56h20.55v-20.56h0Zm57.89,0h-20.56v20.56h20.56v-20.56h0Zm28.94,57.9h-20.55v20.55h20.55v-20.55h0Zm28.94,57.88h-20.56v20.57h20.56v-20.57h0Zm-115.78,0h-20.55v20.57h20.55v-20.57h0Zm-28.94,0h-20.56v20.57h20.56v-20.57h0Zm-57.89,0h-20.56v20.57h20.56v-20.57h0Zm-57.88,0h-20.55v20.57h20.55v-20.57h0Zm-28.94,0h-20.56v20.57h20.56v-20.57h0Zm-318.36,86.84h-20.58v20.56h20.58v-20.56h0Zm0-86.84h-20.58v20.57h20.58v-20.57h0Zm0,28.96h-20.58v20.54h20.58v-20.54h0Zm57.88,0h-20.56v20.54h20.56v-20.54h0Zm57.88,0h-20.55v20.54h20.55v-20.54h0Zm0-28.96h-20.55v20.57h20.55v-20.57h0Zm0-28.94h-20.55v20.56h20.55v-20.56h0Zm57.88,0h-20.56v20.56h20.56v-20.56h0Zm28.94,28.94h-20.55v20.57h20.55v-20.57h0Zm0,57.89h-20.55v20.56h20.55v-20.56h0Zm0-28.93h-20.55v20.54h20.55v-20.54h0Zm-28.94,86.82h-20.56v20.56h20.56v-20.56h0Zm28.94,28.92h-20.55v20.57h20.55v-20.57h0Zm0,28.95h-20.55v20.56h20.55v-20.56h0Zm-434.16-144.69h-20.55v20.54h20.55v-20.54h0Zm28.96-28.96h-20.57v20.57h20.57v-20.57h0Zm28.94-28.94h-20.56v20.56h20.56v-20.56h0Zm0,86.83h-20.56v20.56h20.56v-20.56h0Zm57.89,28.95h-20.59v20.56h20.59v-20.56h0Zm0,57.86h-20.59v20.57h20.59v-20.57h0Zm28.92,0h-20.53v20.57h20.53v-20.57h0Zm86.85,0h-20.58v20.57h20.58v-20.57h0Zm0,28.95h-20.58v20.56h20.58v-20.56h0Zm86.83,0h-20.59v20.56h20.59v-20.56h0Zm28.94,0h-20.55v20.56h20.55v-20.56h0Zm-57.88,0h-20.56v20.56h20.56v-20.56h0Zm-173.66-173.65h-20.59v20.57h20.59v-20.57h0Zm0-86.83h-20.59v20.59h20.59v-20.59h0Zm-28.95-28.93h-20.55v20.55h20.55v-20.55h0Zm-86.84,0h-20.55v20.55h20.55v-20.55h0Zm-28.91-28.94h-20.58v20.58h20.58v-20.58h0Zm-57.9,57.88h-20.58v20.59h20.58v-20.59h0Zm-48.72,66.69h-20.56v20.55h20.56v-20.55h0Zm251.32-240.35h-20.59v20.56h20.59v-20.56h0Zm0,57.88h-20.59v20.57h20.59v-20.57h0Zm57.88,0h-20.57v20.57h20.57v-20.57h0Zm0,28.93h-20.57v20.58h20.57v-20.58h0Zm86.86,0h-20.58v20.58h20.58v-20.58h0Zm28.92-28.93h-20.56v20.57h20.56v-20.57h0Zm28.95-28.96h-20.59v20.57h20.59v-20.57h0Zm0-28.92h-20.59v20.56h20.59v-20.56h0Zm0-28.95h-20.59v20.59h20.59v-20.59h0Zm-57.86-28.93h-20.58v20.55h20.58v-20.55h0Zm-28.97,0h-20.58v20.55h20.58v-20.55h0Zm-318.38,57.89h-20.58v20.56h20.58v-20.56h0Zm0-28.95h-20.58v20.59h20.58v-20.59h0Zm-115.79,0h-20.56v20.59h20.56v-20.59h0Zm-86.81,0h-20.57v20.59h20.57v-20.59h0Zm0-57.87h-20.57v20.55h20.57v-20.55h0Zm-28.96,28.93h-20.53v20.55h20.53v-20.55h0Zm318.37,0h-20.55v20.55h20.55v-20.55h0Zm28.96-28.93h-20.57v20.55h20.57v-20.55h0Zm0,28.93h-20.57v20.55h20.57v-20.55h0Zm401.34-106.52h-20.56v20.22h20.56v-20.22h0Zm-227.67,338.06h-20.57v20.59h20.57v-20.59h0Zm57.9-144.74h-20.58v20.57h20.58v-20.57h0Zm-202.63,28.96h-20.56v20.57h20.56v-20.57h0Zm-335.37,165.16h-20.56v20.55h20.56v-20.55h0Zm96.76-42.63h-20.56v20.59h20.56v-20.59h0Zm7.07-93.6h-20.57v20.58h20.57v-20.58h0Zm289.43-144.7h-20.59v20.55h20.59v-20.55h0Zm28.92-57.54h-20.53v20.22h20.53v-20.22h0Zm64.16-66.9h-20.58v20.22h20.58v-20.22h0Zm97.4-4.78h-20.57v20.22h20.57v-20.22h0Zm-479.91-428.04h-20.57v-20.55h20.57v20.55h0Zm57.9,0h-20.56v-20.55h20.56v20.55h0Zm-28.95,57.55h-20.56v-20.22h20.56v20.22h0Zm-57.91,0h-20.56v-20.22h20.56v20.22h0Zm-48.95,66.54h-20.56v-20.54h20.56v20.54h0Zm269.87,92.3h-20.58v-20.6h20.58v20.6h0Zm-278.79-245.33h-20.55v-20.6h20.55v20.6h0Zm0,57.87h-20.55v-20.54h20.55v20.54h0Zm-28.94,0h-20.57v-20.54h20.57v20.54h0Zm-28.96,0h-20.53v-20.54h20.53v20.54h0Zm-28.92-86.82h-20.57v-20.56h20.57v20.56h0Zm115.77-28.92h-20.56v-20.57h20.56v20.57h0Zm-28.95,0h-20.55v-20.57h20.55v20.57h0ZM478.79,73.83h-20.56v-20.56h20.56v20.56h0Zm23.58-27.46h-20.57V25.82h20.57v20.56h0Zm216.65,156.37h-20.58v-20.57h20.58v20.57h0Zm-28.97,28.92h-20.58v-20.53h20.58v20.53h0Zm-28.94,57.9h-20.57v-20.56h20.57v20.56h0Zm-28.96,173.66h-20.57v-20.58h20.57v20.58h0Zm-86.83,0h-20.55v-20.58h20.55v20.58h0Zm-115.75,0h-20.58v-20.58h20.58v20.58h0Zm-28.97-28.93h-20.58v-20.57h20.58v20.57h0Zm0-28.96h-20.58v-20.59h20.58v20.59h0ZM747.94,86.97h-20.56v-20.57h20.56v20.57h0Zm0,57.87h-20.56v-20.56h20.56v20.56h0Zm86.82-57.87h-20.54v-20.57h20.54v20.57h0Zm-28.93,28.95h-20.55v-20.57h20.55v20.57h0Zm115.76-28.95h-20.55v-20.57h20.55v20.57h0Zm57.89,0h-20.55v-20.57h20.55v20.57h0Zm28.94,57.87h-20.56v-20.56h20.56v20.56h0Zm86.83,0h-20.56v-20.56h20.56v20.56h0Zm0,28.95h-20.56v-20.56h20.56v20.56h0Zm-173.66,57.88h-20.55v-20.53h20.55v20.53h0Zm-28.94,0h-20.55v-20.53h20.55v20.53h0Zm492.03,347.33h-20.55v-20.55h20.55v20.55h0Zm0-28.93h-20.55v-20.59h20.55v20.59h0Zm57.89-28.94h-20.56v-20.57h20.56v20.57h0Zm57.88,57.88h-20.55v-20.55h20.55v20.55h0Zm28.94,0h-20.56v-20.55h20.56v20.55h0Zm22.86-49.52c2.08,4.68,4.1,9.38,6.08,14.1v6.48h-20.55v-20.59h14.47Zm43.03,9.18h-20.56v-20.54h20.56v20.54h0Zm65.78-31.28h-20.55v-20.54h20.55v20.54h0Zm-77.23,143.59c.77,2.47,1.53,4.94,2.29,7.42v12.8h-20.56v-20.22h18.27Zm-40.51,36.39h-20.56v-20.22h20.56v20.22h0Zm-146.24,17.24h-20.56v-20.55h20.56v20.55h0Zm-12.41-68.04h-20.55v-20.22h20.55v20.22h0Zm-28.94-28.61h-20.55v-20.54h20.55v20.54h0Zm0-57.87h-20.55v-20.59h20.55v20.59h0Zm0-28.94h-20.55v-20.57h20.55v20.57h0Zm-347.31,57.88h-20.56v-20.55h20.56v20.55h0Zm260.49,0h-20.55v-20.55h20.55v20.55h0Zm0-57.88h-20.55v-20.57h20.55v20.57h0Zm28.94-28.92h-20.56v-20.57h20.56v20.57h0Zm-578.82,86.8h-20.58v-20.55h20.58v20.55h0Zm0,57.55h-20.58v-20.22h20.58v20.22h0Zm-57.9-28.61h-20.57v-20.54h20.57v20.54h0Zm-28.96-28.94h-20.57v-20.55h20.57v20.55h0Zm-57.88,0h-20.59v-20.55h20.59v20.55h0Zm-28.95-86.8h-20.55v-20.57h20.55v20.57h0Zm-28.94,0h-20.56v-20.57h20.56v20.57h0Zm-57.9,28.92h-20.55v-20.56h20.55v20.56h0Zm0,57.88h-20.55v-20.55h20.55v20.55h0Zm0,28.94h-20.55v-20.54h20.55v20.54h0Zm0,28.61h-20.55v-20.22h20.55v20.22h0Zm16.13,53.76h-20.58v-20.22h20.58v20.22h0Zm331.21-53.76h-20.55v-20.22h20.55v20.22h0Zm144.71-28.61h-20.56v-20.54h20.56v20.54h0Zm28.94,0h-20.55v-20.54h20.55v20.54h0Zm28.94,28.61h-20.56v-20.22h20.56v20.22h0Zm-28.94,0h-20.55v-20.22h20.55v20.22h0Zm-28.94,0h-20.56v-20.22h20.56v20.22h0Zm-28.95,0h-20.55v-20.22h20.55v20.22h0Zm231.55,0h-20.56v-20.22h20.56v20.22h0Zm-20.22,52.72h-20.55v-20.22h20.55v20.22h0Zm20.22-139.2h-20.56v-20.59h20.56v20.59h0Zm-86.83-347.32h-20.55v-20.57h20.55v20.57h0Zm0,57.88h-20.55v-20.57h20.55v20.57h0Zm-86.83,0h-20.55v-20.57h20.55v20.57h0Zm-28.94,28.95h-20.56v-20.56h20.56v20.56h0Zm-28.95,0h-20.55v-20.56h20.55v20.56h0Zm-173.65,202.63h-20.56v-20.57h20.56v20.57h0Zm434.13-173.69h-20.55v-20.55h20.55v20.55h0Zm52.44-91.15h-20.56v-20.53h20.56v20.53h0Zm30.82-11.69h-20.56v-20.57h20.56v20.57h0Zm39.11,41.36h-20.56v-20.57h20.56v20.57h0Zm80.23,61.48h-20.55v-20.55h20.55v20.55h0Zm0,57.89h-20.55v-20.56h20.55v20.56h0Zm0,86.83h-20.55v-20.57h20.55v20.57h0Zm-28.94,0h-20.55v-20.57h20.55v20.57h0Zm-173.66,28.96h-20.55v-20.57h20.55v20.57h0Zm-86.83-28.96h-20.56v-20.57h20.56v20.57h0Zm-28.95-115.77h-20.55v-20.59h20.55v20.59h0Zm0-57.89h-20.55v-20.56h20.55v20.56h0Zm-463.1,28.94h-20.53v-20.55h20.53v20.55h0Zm0,28.95h-20.53v-20.59h20.53v20.59h0Zm0,57.88h-20.53v-20.59h20.53v20.59h0Zm202.62-115.77h-20.55v-20.56h20.55v20.56h0Zm0-57.9h-20.55v-20.53h20.55v20.53h0Zm-28.94,0h-20.59v-20.53h20.59v20.53h0Zm-28.95,0h-20.56v-20.53h20.56v20.53h0Zm231.53-28.92h-20.55v-20.57h20.55v20.57h0Zm0-28.96h-20.55v-20.56h20.55v20.56h0Zm-28.94,0h-20.56v-20.56h20.56v20.56h0Zm-28.95,0h-20.55v-20.56h20.55v20.56h0Zm0,318.41h-20.55v-20.57h20.55v20.57h0Zm-86.83,0h-20.54v-20.57h20.54v20.57h0Zm-376.27-231.57h-20.55v-20.57h20.55v20.57h0Zm0,57.88h-20.55v-20.55h20.55v20.55h0Zm-28.91,0h-20.58v-20.55h20.58v20.55h0Zm-28.97,0h-20.58v-20.55h20.58v20.55h0Zm-57.87,0h-20.56v-20.55h20.56v20.55h0Zm0,28.95h-20.56v-20.59h20.56v20.59h0Zm-28.95,28.94h-20.56v-20.55h20.56v20.55h0Zm-28.95-28.94h-20.57v-20.59h20.57v20.59h0Zm-28.96,28.94h-20.56v-20.55h20.56v20.55h0Zm289.45-86.83h-20.55v-20.56h20.55v20.56h0Zm-57.88,28.94h-20.57v-20.55h20.57v20.55h0Zm-144.7,115.79h-20.56v-20.57h20.56v20.57h0Zm-86.86,28.93h-20.56v-20.58h20.56v20.58h0Zm-86.81,0h-20.57v-20.58h20.57v20.58h0Zm0-28.93h-20.57v-20.57h20.57v20.57h0ZM661.12,144.84h-20.57v-20.56h20.57v20.56h0Zm-28.96,57.9h-20.57v-20.57h20.57v20.57h0Zm-115.77,0h-20.56v-20.57h20.56v20.57h0Zm-44.61-83.26h-20.57v-20.56h20.57v20.56h0Zm-42.21,54.31h-20.58v-16.43c2.39-1.39,4.8-2.76,7.21-4.13h13.37v20.56h0Zm0,28.96h-20.58v-20.57h20.58v20.57h0Zm-106.89-21.28h-20.56v-20.57h20.56v20.57h0Zm-50.96-30.34h-20.56v-16.25c1.87-1.44,3.75-2.86,5.64-4.28h14.92v20.53h0Zm-11.31,56.17h-20.56v-20.55h20.56v20.55h0Z"/><path class="e" d="M671.1,337.76h56.14v-13.28l15.37,6.14v7.14h58.86v13.52h-58.86v11.19h47.68v55.04h-34.97c4.07,3.97,10.16,9.12,18.2,13.8,16.12,9.38,29.81,15.37,29.81,15.37l-12.38,14.8s-16.68-8.44-36.16-24.74c-4.83-4.04-8.86-7.75-12.18-11.06v35.38h-15.37v-35.39c-3.33,3.31-7.35,7.03-12.18,11.07-19.49,16.3-36.17,24.74-36.17,24.74l-12.37-14.8s13.68-5.99,29.79-15.37c8.05-4.68,14.13-9.82,18.21-13.8h-32.25v-55.04h44.97v-11.19h-56.14v-13.52h0Zm149.23,2.74h56.14v-13.28l15.38,6.15v7.13h58.86v13.51h-130.38v-13.51h0Zm41.06,84.48s-7,9.35-15.6,17.98c-8.6,8.62-14.87,13.58-14.87,13.58-4.04-3.11-8.07-6.24-12.11-9.35,10-8.44,20.59-19.5,26.88-28.1,5.23,1.97,10.46,3.93,15.7,5.89h0Zm51.06,0s6.99,9.35,15.61,17.98c8.6,8.62,14.88,13.58,14.88,13.58,4.03-3.11,8.07-6.24,12.1-9.35-10-8.44-20.59-19.5-26.88-28.1-5.23,1.97-10.46,3.93-15.7,5.89h0Zm-76.54-59.11h99.22v46.75h-43.28v35.73c0,11.69-4.91,13.6-15.38,14.62-7.38,.73-14.8,.32-14.8,.32l-8.18-16.65s11.84,.85,18.44,.49c5.24-.3,4.54-3.35,4.54-7.35v-27.15h-40.56v-46.75h0Zm17.17,12.28h64.88v22.18h-64.88v-22.18h0Zm-110.46-4.69v11.13h30.37v-11.13h-30.37Zm0,21.91v11.12h30.37v-11.12h-30.37Zm-15.37,11.12v-11.12h-27.65v11.12h27.65Zm0-21.91v-11.13h-27.65v11.13h27.65Z"/><text class="g" transform="translate(68.67 966.68)"><tspan class="c" x="0" y="0">Neon </tspan><tspan class="f" x="779.06" y="0">T</tspan><tspan class="c" x="925.57" y="0">ok</tspan><tspan class="b" x="1241.99" y="0">y</tspan><tspan class="c" x="1388.81" y="0">o</tspan></text></svg>